<svg width="80" height="80" fill="none" xmlns="http://www.w3.org/2000/svg"><path d="M25 54a6 6 0 1 0 0-12 6 6 0 0 0 0 12zm7 3.405C30.844 55.91 29.11 55 27.119 55H22.75c-3.147 0-5.78 2.405-6.166 5.59l-.578 5.135c-.064.65.321 1.3.963 1.43 2.505.52 5.203.845 7.965.845 1.156 0 2.248-.065 3.34-.13l.514-4.55c.32-2.405 1.477-4.485 3.211-5.915zM55 54a6 6 0 1 0 0-12 6 6 0 0 0 0 12zm8.462 6.618c-.386-3.2-3.028-5.618-6.184-5.618h-4.381A6.2 6.2 0 0 0 48 57.417a8.72 8.72 0 0 1 3.157 5.88l.515 4.572c1.096.131 2.19.131 3.35.131 2.77 0 5.477-.261 7.99-.85.644-.13 1.095-.783.966-1.436l-.516-5.096zM42.255 58h-4.396c-3.167 0-5.818 2.417-6.206 5.553l-.646 5.16c-.065.654.323 1.307.97 1.438 2.52.522 5.236.849 8.015.849 2.78 0 5.495-.261 8.016-.85.647-.13 1.1-.783.97-1.436l-.647-5.161C48.073 60.352 45.422 58 42.255 58zM40 57a6 6 0 1 0 0-12 6 6 0 0 0 0 12zm-3.816-21.788 2.523 5.016c.517 1.03 2.07 1.03 2.587 0l2.522-5.016C49.119 33.604 53 28.716 53 22.927 53 15.788 47.18 10 40 10s-13 5.788-13 12.927c0 5.789 3.88 10.612 9.184 12.285zm4.01-4.888c-.84 0-1.552-.708-1.552-1.544 0-.836.711-1.544 1.552-1.544.84 0 1.552.708 1.552 1.544.065.836-.647 1.544-1.552 1.544zm-.13-14.793c1.876 0 3.493.9 4.27 2.444.71 1.48.581 3.152-.324 4.438-.582.836-1.229 1.286-1.682 1.608-.517.386-.711.514-.776 1.35 0 .386-.323.644-.711.644h-1.1c-.452 0-.776-.386-.711-.772.13-1.93.905-2.637 1.876-3.345a4.03 4.03 0 0 0 1.099-1.029c.388-.514.388-1.157.13-1.736-.195-.386-.712-1.03-2.006-1.03-1.617 0-2.134 1.03-2.263 1.802a.757.757 0 0 1-.712.578H35.99a.714.714 0 0 1-.711-.836c.194-2.122 1.746-4.116 4.786-4.116z" fill="#000"/></svg>