<svg width="80" height="80" fill="none" xmlns="http://www.w3.org/2000/svg"><path d="M34.126 60.221v1.596c0 1.253.887 2.278 2.051 2.449l.388 1.424c.222.74.887 1.31 1.663 1.31h3.714c.776 0 1.496-.57 1.663-1.31l.388-1.424c1.164-.171 2.05-1.196 2.05-2.45v-1.595c0-.797-.61-1.537-1.496-1.537h-8.98a1.54 1.54 0 0 0-1.44 1.538zm7.317-45.74v5.24c0 .798-.61 1.482-1.441 1.482-.832 0-1.441-.627-1.441-1.482v-5.24c0-.797.61-1.481 1.44-1.481.832 0 1.442.684 1.442 1.481zm15.63 24.266c0-.798.61-1.481 1.442-1.481h5.044c.776 0 1.441.626 1.441 1.48 0 .855-.61 1.482-1.441 1.482h-5.1c-.72-.057-1.385-.684-1.385-1.481zm-40.628-1.481h5.1c.775 0 1.44.626 1.44 1.48 0 .855-.61 1.482-1.44 1.482h-5.1c-.776 0-1.441-.627-1.441-1.481-.056-.855.554-1.481 1.44-1.481zm37.691 13.842 3.603 3.702c.61.627.61 1.538 0 2.108-.277.285-.61.455-.998.455s-.72-.17-.998-.455l-3.602-3.703c-.61-.626-.61-1.538 0-2.107.498-.57 1.385-.57 1.995 0zm-29.82-30.589 3.602 3.703c.61.626.61 1.537 0 2.107-.332.285-.665.456-1.053.456-.388 0-.72-.171-.997-.456l-3.603-3.702c-.61-.627-.61-1.538 0-2.108.61-.57 1.496-.627 2.05 0zm31.427 0c.61-.627 1.497-.627 2.051 0 .61.627.61 1.538 0 2.108l-3.658 3.702c-.277.285-.61.456-.998.456s-.72-.171-.997-.456c-.61-.627-.61-1.538 0-2.108l3.602-3.702zM25.867 51.108c.61-.627 1.497-.627 2.051 0 .555.626.61 1.538 0 2.107l-3.602 3.703c-.278.285-.61.455-.998.455s-.72-.17-.998-.455c-.61-.627-.61-1.538 0-2.108l3.547-3.702zm.721-12.247c0 3.531 1.386 7.063 3.77 9.57 1.385 1.48 2.272 3.303 2.549 5.297.277 1.709 1.718 3.019 3.437 3.019h7.427c1.718 0 3.16-1.253 3.437-3.02.277-1.993 1.219-3.873 2.55-5.297a14.03 14.03 0 0 0 3.768-9.398c.056-7.633-5.93-13.9-13.303-13.956h-.11c-7.428.057-13.525 6.209-13.525 13.785zm15.132-3.988c-.055.855-.055 1.766-.166 2.62-.056 1.368-.166 2.735-.222 4.102 0 .399-.055.854-.055 1.31 0 .74-.555 1.31-1.275 1.31-.72 0-1.275-.57-1.275-1.31-.055-2.108-.222-4.272-.333-6.323 0-.57-.055-1.139-.055-1.709-.056-.854.443-1.708 1.275-1.822.831-.228 1.663.17 2.05.968.056.228.056.513.056.854zM38.283 47.12c0-.968.776-1.766 1.719-1.766.942 0 1.718.798 1.718 1.766 0 .969-.776 1.766-1.718 1.766-.943 0-1.719-.797-1.719-1.766z" fill="#000"/></svg>