<svg width="112" height="47" fill="none" xmlns="http://www.w3.org/2000/svg"><path d="M12.16 8.376c0 1.472-.278 2.7-.836 3.686A5.201 5.201 0 0 1 9.01 14.27c-.997.487-2.172.73-3.525.73H1.371V2.287h4.398c2.042 0 3.614.522 4.718 1.567 1.116 1.045 1.674 2.552 1.674 4.522zm-3.56.125c0-2.29-.932-3.436-2.796-3.436h-.997v7.122h.766c1.045 0 1.81-.303 2.297-.908.487-.606.73-1.532.73-2.778zm11.242-3.525c.19 0 .385.018.587.053l.445.054-.302 3.204a5.384 5.384 0 0 0-1.157-.107c-.286 0-.594.042-.927.125a1.601 1.601 0 0 0-.854.552c-.226.273-.338.707-.338 1.3V15h-3.401V5.154h2.528l.534 1.567h.16a3.627 3.627 0 0 1 1.14-1.229c.498-.344 1.027-.516 1.585-.516zm6.128 0c1.437 0 2.57.374 3.401 1.121.831.748 1.247 1.876 1.247 3.383v1.514h-6.072c.024.51.214.932.57 1.264.368.332.896.499 1.585.499.617 0 1.18-.06 1.69-.178a7.756 7.756 0 0 0 1.586-.57v2.439c-.475.25-.997.433-1.567.552-.558.119-1.264.178-2.12.178-.996 0-1.886-.172-2.67-.516a4.15 4.15 0 0 1-1.834-1.638c-.45-.748-.676-1.71-.676-2.885 0-1.175.201-2.142.605-2.902.416-.772.985-1.341 1.71-1.71.735-.367 1.584-.551 2.545-.551zm.125 2.314c-.403 0-.742.125-1.015.374-.261.25-.415.647-.463 1.193h2.92c-.012-.439-.142-.807-.391-1.104-.238-.308-.588-.463-1.05-.463zm10.9-2.314c1.246 0 2.22.308 2.92.926.7.617 1.05 1.495 1.05 2.635V15h-2.35l-.659-1.3h-.071c-.285.345-.57.63-.855.855a2.755 2.755 0 0 1-.997.463c-.38.107-.843.16-1.389.16-.854 0-1.566-.261-2.136-.783-.57-.523-.855-1.324-.855-2.404 0-1.056.362-1.84 1.086-2.35.736-.51 1.799-.796 3.187-.855l1.639-.053V8.59c0-.439-.107-.748-.321-.926-.214-.19-.505-.285-.872-.285-.392 0-.825.072-1.3.214-.475.13-.956.303-1.442.516l-.98-2.243a7.197 7.197 0 0 1 1.923-.659 11.65 11.65 0 0 1 2.422-.231zm.587 5.626-.783.036c-.63.024-1.068.136-1.318.338-.249.19-.374.463-.374.82 0 .331.09.58.267.747.178.154.416.231.713.231.415 0 .765-.13 1.05-.391.297-.261.445-.6.445-1.015v-.766zm17.361-5.626c1.128 0 1.988.29 2.582.872.593.57.89 1.484.89 2.742V15h-3.4V9.64c0-.747-.102-1.264-.303-1.548-.202-.297-.499-.446-.89-.446-.547 0-.926.244-1.14.73-.214.475-.32 1.152-.32 2.03V15H48.96V9.64c0-.712-.095-1.222-.285-1.53-.19-.31-.475-.464-.855-.464-.581 0-.98.268-1.193.802-.202.522-.303 1.27-.303 2.243V15h-3.4V5.154h2.564l.498 1.21h.09c.26-.403.634-.735 1.12-.997.5-.26 1.11-.391 1.835-.391.724 0 1.317.124 1.78.374.475.237.86.57 1.158.997h.107a3.09 3.09 0 0 1 1.193-1.015 3.844 3.844 0 0 1 1.673-.356z" fill="#8EEDE6"/><path d="M7.033 21.922c-.807 0-1.442.333-1.905.997-.463.665-.695 1.591-.695 2.778 0 1.199.226 2.113.677 2.742.463.617 1.17.926 2.119.926a5.66 5.66 0 0 0 1.62-.232 14.383 14.383 0 0 0 1.603-.57v2.903A7.455 7.455 0 0 1 8.725 32a9.516 9.516 0 0 1-1.87.178c-1.389 0-2.522-.273-3.4-.819-.867-.546-1.508-1.306-1.924-2.279-.415-.985-.623-2.119-.623-3.4 0-1.283.237-2.416.712-3.402a5.394 5.394 0 0 1 2.083-2.314c.926-.57 2.048-.855 3.366-.855.617 0 1.264.071 1.94.214a8.994 8.994 0 0 1 1.995.676l-1.05 2.707a9.33 9.33 0 0 0-1.408-.552 4.867 4.867 0 0 0-1.513-.232zm14.75 5.128c0 1.65-.44 2.92-1.318 3.81-.878.879-2.083 1.318-3.614 1.318-.95 0-1.792-.196-2.528-.587a4.406 4.406 0 0 1-1.745-1.745c-.416-.772-.623-1.704-.623-2.796 0-1.626.439-2.878 1.317-3.757.879-.878 2.09-1.317 3.632-1.317.95 0 1.787.196 2.511.587a4.176 4.176 0 0 1 1.727 1.727c.427.748.641 1.668.641 2.76zm-6.374 0c0 .843.113 1.49.338 1.94.226.44.605.66 1.14.66.522 0 .89-.22 1.104-.66.225-.45.338-1.097.338-1.94 0-.83-.113-1.46-.338-1.887-.214-.44-.588-.659-1.122-.659-.523 0-.896.22-1.122.659-.225.427-.338 1.056-.338 1.887zm14.114-5.074c1.021 0 1.852.29 2.493.872.641.57.962 1.484.962 2.742V32h-3.401v-5.377c0-.653-.095-1.146-.285-1.478-.19-.332-.493-.498-.908-.498-.641 0-1.075.267-1.3.8-.214.523-.32 1.27-.32 2.244V32h-3.401v-9.846h2.564l.463 1.3h.124a3.236 3.236 0 0 1 1.21-1.087c.511-.26 1.11-.391 1.8-.391zm12.73 6.997c0 .617-.143 1.17-.428 1.656-.273.487-.718.866-1.335 1.14-.605.273-1.407.41-2.404.41-.7 0-1.33-.043-1.887-.126a7.544 7.544 0 0 1-1.674-.427v-2.724c.63.285 1.264.492 1.905.623.641.119 1.146.178 1.514.178.736 0 1.104-.166 1.104-.498a.49.49 0 0 0-.178-.374c-.12-.107-.333-.226-.641-.356a48.953 48.953 0 0 0-1.282-.535c-.82-.332-1.43-.724-1.834-1.175-.404-.45-.606-1.08-.606-1.887 0-.962.368-1.686 1.104-2.172.748-.487 1.733-.73 2.956-.73a7.54 7.54 0 0 1 1.834.213c.57.143 1.163.35 1.78.624l-.925 2.19a8.84 8.84 0 0 0-1.478-.535c-.499-.13-.897-.195-1.193-.195-.558 0-.837.136-.837.41 0 .13.047.242.142.337.107.084.303.19.588.32.285.12.7.286 1.246.5.57.237 1.039.486 1.407.747.38.261.659.582.837.962.19.38.284.854.284 1.424zm6.349.517c.297 0 .576-.03.837-.09.26-.07.528-.154.8-.249v2.475a8.55 8.55 0 0 1-1.174.392c-.416.107-.944.16-1.585.16-.64 0-1.205-.1-1.691-.303a2.29 2.29 0 0 1-1.14-1.032c-.261-.499-.392-1.193-.392-2.084V24.7h-1.192v-1.388l1.513-1.068.872-2.066h2.226v1.977h2.421V24.7h-2.421v3.828c0 .641.309.962.926.962zm4.735-11.307c.487 0 .908.101 1.264.303.368.202.553.605.553 1.21 0 .582-.185.98-.553 1.194-.356.201-.777.302-1.264.302-.498 0-.926-.1-1.282-.302-.344-.214-.516-.612-.516-1.193 0-.606.172-1.01.516-1.211.356-.202.784-.303 1.282-.303zm1.692 3.97V32h-3.4v-9.846h3.4zm6.84 7.337c.297 0 .576-.03.837-.09.261-.07.528-.154.801-.249v2.475c-.367.154-.76.285-1.175.392-.415.107-.943.16-1.584.16-.641 0-1.205-.1-1.692-.303a2.29 2.29 0 0 1-1.14-1.032c-.26-.499-.391-1.193-.391-2.084V24.7h-1.193v-1.388l1.514-1.068.872-2.066h2.226v1.977h2.421V24.7h-2.421v3.828c0 .641.308.962.925.962zm12.588-7.336V32h-2.564l-.427-1.229h-.196c-.309.499-.73.861-1.264 1.087a4.56 4.56 0 0 1-1.71.32 3.999 3.999 0 0 1-1.745-.374 2.829 2.829 0 0 1-1.246-1.175c-.297-.534-.445-1.223-.445-2.065v-6.41h3.4v5.377c0 .64.09 1.128.268 1.46.19.332.492.498.908.498.64 0 1.068-.255 1.282-.765.225-.522.338-1.276.338-2.261v-4.31h3.401zm6.818 7.335c.297 0 .576-.03.837-.088.261-.072.528-.155.801-.25v2.475a8.61 8.61 0 0 1-1.175.392c-.415.107-.944.16-1.585.16-.64 0-1.205-.1-1.691-.303a2.29 2.29 0 0 1-1.14-1.032c-.26-.499-.392-1.193-.392-2.084V24.7h-1.192v-1.388l1.513-1.068.873-2.066h2.225v1.977h2.422V24.7h-2.422v3.828c0 .641.309.962.926.962zm4.735-11.306c.487 0 .908.101 1.265.303.368.202.552.605.552 1.21 0 .582-.184.98-.552 1.194-.357.201-.778.302-1.265.302-.498 0-.925-.1-1.282-.302-.344-.214-.516-.612-.516-1.193 0-.606.172-1.01.516-1.211.357-.202.784-.303 1.282-.303zm1.692 3.97V32h-3.4v-9.846h3.4zm11.416 4.897c0 1.65-.439 2.92-1.317 3.81-.879.879-2.083 1.318-3.615 1.318-.95 0-1.792-.196-2.528-.587a4.407 4.407 0 0 1-1.745-1.745c-.415-.772-.623-1.704-.623-2.796 0-1.626.44-2.878 1.318-3.757.878-.878 2.089-1.317 3.632-1.317.95 0 1.786.196 2.51.587a4.175 4.175 0 0 1 1.728 1.727c.427.748.64 1.668.64 2.76zm-6.374 0c0 .843.113 1.49.339 1.94.225.44.605.66 1.14.66.521 0 .89-.22 1.103-.66.226-.45.338-1.097.338-1.94 0-.83-.112-1.46-.338-1.887-.214-.44-.588-.659-1.122-.659-.522 0-.896.22-1.121.659-.226.427-.339 1.056-.339 1.887zm14.115-5.074c1.021 0 1.851.29 2.492.872.641.57.962 1.484.962 2.742V32h-3.401v-5.377c0-.653-.095-1.146-.285-1.478-.19-.332-.492-.498-.908-.498-.641 0-1.074.267-1.3.8-.213.523-.32 1.27-.32 2.244V32h-3.401v-9.846h2.564l.463 1.3h.125a3.233 3.233 0 0 1 1.21-1.087c.511-.26 1.11-.391 1.799-.391z" fill="#FAD749"/><path d="M2.355 44.143a5.06 5.06 0 0 1-1.1-.117 4.294 4.294 0 0 1-.885-.292l.301-.837a8.4 8.4 0 0 0 .74.263c.298.09.61.136.934.136.318 0 .578-.055.779-.165a.554.554 0 0 0 .301-.506c0-.201-.094-.367-.282-.496-.188-.13-.473-.257-.856-.38-.59-.188-1.045-.402-1.363-.642-.31-.247-.467-.6-.467-1.061 0-.441.176-.791.526-1.051.357-.266.889-.399 1.596-.399.324 0 .626.03.905.088.285.058.506.133.662.223v.857a3.924 3.924 0 0 0-.691-.224 3.596 3.596 0 0 0-.876-.107c-.39 0-.668.058-.837.175-.162.11-.243.243-.243.4 0 .2.097.356.292.466.2.11.538.247 1.012.409.324.11.61.233.856.37.253.136.45.308.594.516.142.2.214.46.214.778 0 .279-.068.542-.205.788-.13.24-.35.435-.661.584-.305.15-.72.224-1.246.224zm.722-6.257c-.422 0-.717-.085-.886-.253a.824.824 0 0 1-.253-.584c0-.104.016-.214.049-.331a.975.975 0 0 1 .117-.302l.827.127a.921.921 0 0 0-.059.301.31.31 0 0 0 .078.215c.052.058.143.087.273.087h2.355v.74H3.077zm3.074 6.15V41.7H5.47v-.74h1.654v2.258h.107c.402 0 .707-.146.915-.438.207-.291.311-.768.311-1.43 0-.688-.123-1.178-.37-1.47-.246-.291-.652-.437-1.216-.437-.318 0-.616.042-.895.126a3.013 3.013 0 0 0-.788.37v-.934c.2-.11.46-.205.778-.283a4.21 4.21 0 0 1 1.06-.126c.306 0 .575.03.808.088.24.058.442.152.604.282a.984.984 0 0 0 .35-.224.547.547 0 0 0 .146-.39h.973c0 .28-.084.52-.253.72a1.464 1.464 0 0 1-.69.429c.37.383.554 1.006.554 1.869 0 .843-.185 1.498-.555 1.965-.363.467-.986.7-1.868.7H6.15zm-.915 1.985v-.253c0-.376.107-.662.321-.856.214-.188.467-.282.76-.282.259 0 .466.055.622.165.162.117.295.256.4.418l.554-.525.662.506v-.71h.905v1.537h-.954l-.613-.525-.516.525h-.204a1.608 1.608 0 0 0-.273-.428.51.51 0 0 0-.399-.175c-.155 0-.262.058-.32.175a.778.778 0 0 0-.088.35v.078h-.857zm7.685-1.878c-.409 0-.775-.036-1.1-.107a7.113 7.113 0 0 1-.846-.253v-2.18h.934v1.576c.091.046.227.085.409.117.188.033.383.049.584.049.214 0 .412-.023.593-.068a.873.873 0 0 0 .438-.273c.117-.13.175-.314.175-.554 0-.24-.061-.419-.184-.536-.117-.116-.296-.214-.536-.291a20.303 20.303 0 0 0-.866-.263 7.54 7.54 0 0 1-.963-.331 1.552 1.552 0 0 1-.574-.419c-.124-.168-.185-.389-.185-.661 0-.902.707-1.353 2.121-1.353.441 0 .818.036 1.129.107.311.071.545.143.7.214v.866c-.175-.084-.437-.165-.787-.243a4.811 4.811 0 0 0-1.13-.127c-.298 0-.538.036-.72.108-.181.064-.272.184-.272.36 0 .188.123.327.37.418.246.084.58.185 1.002.302.357.097.678.214.964.35.285.13.512.311.68.545.176.227.264.538.264.934 0 .344-.072.646-.215.905-.142.253-.376.451-.7.594-.318.143-.746.214-1.285.214zm4.991 0a5.06 5.06 0 0 1-1.1-.117 4.293 4.293 0 0 1-.885-.292l.301-.837c.201.085.448.172.74.263.298.09.61.136.934.136.318 0 .578-.055.779-.165a.554.554 0 0 0 .301-.506c0-.201-.094-.367-.282-.496-.188-.13-.473-.257-.856-.38-.59-.188-1.045-.402-1.363-.642-.311-.247-.467-.6-.467-1.061 0-.441.175-.791.526-1.051.357-.266.889-.399 1.596-.399.324 0 .626.03.905.088.285.058.506.133.662.223v.857a3.92 3.92 0 0 0-.691-.224 3.595 3.595 0 0 0-.876-.107c-.39 0-.668.058-.837.175-.162.11-.243.243-.243.4 0 .2.097.356.291.466.202.11.539.247 1.013.409.324.11.61.233.856.37.253.136.45.308.594.516.142.2.214.46.214.778 0 .279-.068.542-.205.788-.13.24-.35.435-.661.584-.305.15-.72.224-1.246.224zm4.837 0a5.06 5.06 0 0 1-1.1-.117 4.293 4.293 0 0 1-.885-.292l.302-.837c.2.085.447.172.74.263.298.09.609.136.933.136.318 0 .578-.055.779-.165a.554.554 0 0 0 .302-.506c0-.201-.095-.367-.283-.496-.188-.13-.473-.257-.856-.38-.59-.188-1.044-.402-1.362-.642-.312-.247-.467-.6-.467-1.061 0-.441.175-.791.525-1.051.357-.266.889-.399 1.596-.399.324 0 .626.03.905.088.285.058.506.133.662.223v.857a3.92 3.92 0 0 0-.691-.224 3.595 3.595 0 0 0-.876-.107c-.39 0-.668.058-.837.175-.162.11-.243.243-.243.4 0 .2.097.356.292.466.2.11.538.247 1.012.409.324.11.61.233.856.37.253.136.451.308.594.516.143.2.214.46.214.778 0 .279-.068.542-.204.788-.13.24-.35.435-.662.584-.305.15-.72.224-1.246.224zm5.976-.01c-.428 0-.792-.084-1.09-.253a1.328 1.328 0 0 1-.603-.69h-.059l-.078.846h-.827v-5.333h1.041v2.93c0 .512.117.91.35 1.196.234.28.565.419.994.419.7 0 1.05-.38 1.05-1.139v-3.406h1.042v3.542c0 .636-.16 1.11-.477 1.421-.318.312-.766.467-1.343.467zm5.158 0c-.577 0-1.028-.156-1.353-.467-.318-.311-.477-.795-.477-1.45v-3.513h1.042v3.406c0 .76.353 1.139 1.06 1.139.422 0 .747-.14.974-.419.233-.285.35-.684.35-1.197v-2.929h1.041v5.333h-.827l-.078-.798h-.058c-.117.26-.315.474-.594.642-.279.169-.639.253-1.08.253zm1.304 2.482c-.447 0-.781-.081-1.002-.244a.79.79 0 0 1-.34-.68v-.166c0-.11-.026-.179-.078-.205a.418.418 0 0 0-.234.01l-.068-.603c.09-.033.191-.052.302-.059.103-.006.185-.01.243-.01.247 0 .425.053.535.156.104.104.156.25.156.438v.302c0 .123.036.22.107.292.071.078.191.117.36.117.175 0 .299-.04.37-.117a.417.417 0 0 0 .097-.292v-.866h.886v.944c0 .655-.445.983-1.334.983zm7.99-.828c-.279 0-.558-.029-.837-.087a3.323 3.323 0 0 1-.769-.243v-.954c.195.13.428.23.701.302.279.071.555.107.827.107.402 0 .727-.094.973-.282.247-.189.37-.539.37-1.052v-.262h-.049c-.123.194-.311.36-.564.496-.246.13-.551.195-.915.195-.311 0-.59-.059-.837-.175a1.3 1.3 0 0 1-.584-.555c-.136-.26-.204-.597-.204-1.012v-1.703c0-.292-.055-.52-.165-.681a.828.828 0 0 0-.419-.341 1.611 1.611 0 0 0-.564-.097c-.318 0-.58.068-.788.204-.202.136-.309.337-.322.603l1.032.487-.078.516a.922.922 0 0 0-.603.214c-.156.13-.234.357-.234.681v.778c0 .273.133.41.4.41.135 0 .255-.02.36-.06l.126.701a1.359 1.359 0 0 1-.37.117c-.123.026-.25.04-.38.04-.324 0-.6-.079-.827-.234-.227-.163-.34-.448-.34-.857v-.846c0-.396.087-.685.262-.866a1.48 1.48 0 0 1 .682-.39l.01-.039-1.1-.399v-.301c0-.299.087-.568.262-.808.176-.246.425-.441.75-.584.33-.143.72-.214 1.168-.214.395 0 .755.065 1.08.195.33.123.593.32.788.593.201.273.302.633.302 1.08v1.626c0 .363.08.626.243.788a.902.902 0 0 0 .652.243c.363 0 .652-.133.866-.399.22-.272.33-.636.33-1.09v-2.929h1.042v4.798c0 .772-.194 1.346-.584 1.722-.389.376-.953.565-1.693.565zm5.09-1.654c-.325 0-.597-.078-.818-.233-.22-.163-.33-.448-.33-.857v-3.746c0-.175.012-.318.038-.428a1.1 1.1 0 0 1 .156-.331c.071-.11.172-.247.301-.41.15-.18.263-.333.341-.456a.753.753 0 0 0 .127-.419c0-.363-.227-.545-.682-.545-.194 0-.373.03-.535.088-.156.052-.285.11-.39.175v-.837c.092-.052.238-.104.439-.156.2-.058.44-.087.72-.087.454 0 .817.1 1.09.301.272.195.409.493.409.896 0 .26-.052.486-.156.68a3.02 3.02 0 0 1-.331.526c-.11.143-.201.263-.273.36-.07.091-.126.189-.165.292a1.224 1.224 0 0 0-.049.38v3.59c0 .267.127.4.38.4a1.13 1.13 0 0 0 .36-.068l.127.73c-.124.058-.25.097-.38.116-.123.026-.25.04-.38.04zm3.492 0c-.578 0-1.029-.156-1.353-.467-.318-.311-.477-.795-.477-1.45v-3.513h1.042v3.406c0 .76.353 1.139 1.06 1.139.422 0 .746-.14.973-.419.234-.285.35-.684.35-1.197v-2.929h1.042v5.333h-.827l-.078-.798h-.058c-.117.26-.315.474-.594.642-.279.169-.639.253-1.08.253zm4.282-.097v-4.32c0-.293.055-.517.166-.672a.873.873 0 0 1 .437-.34c.189-.066.39-.098.604-.098.11 0 .224.013.34.039.117.02.221.052.312.097l-.136.74a.844.844 0 0 0-.185-.04 1.365 1.365 0 0 0-.146-.01c-.143 0-.247.04-.312.118a.464.464 0 0 0-.087.301v1.334c0 .188-.003.392-.01.613 0 .22-.013.486-.039.798h.039c.13-.286.25-.523.36-.71.11-.189.208-.367.292-.536l.477-.808h.545l.467.808c.143.26.263.48.36.662.097.175.195.37.292.584h.048a15.281 15.281 0 0 1-.058-1.411v-4.399h1.002v7.25h-.953l-1.411-2.423h-.04l-1.41 2.423h-.954zm1.62-6.15c-.422 0-.717-.085-.885-.253a.824.824 0 0 1-.253-.584c0-.104.013-.214.039-.331a.974.974 0 0 1 .116-.302l.828.127a.54.54 0 0 0-.03.136 1.5 1.5 0 0 0-.01.165.31.31 0 0 0 .078.215c.052.058.14.087.263.087h1.401v.74h-1.547zm6.595 6.247c-.578 0-1.029-.156-1.353-.467-.318-.311-.477-.795-.477-1.45v-3.513h1.041v3.406c0 .76.354 1.139 1.061 1.139.422 0 .746-.14.973-.419.234-.285.35-.684.35-1.197v-2.929h1.042v5.333h-.827l-.078-.798h-.058c-.117.26-.315.474-.594.642-.28.169-.64.253-1.08.253zm6.19.01c-.734 0-1.279-.185-1.635-.555-.357-.37-.536-.947-.536-1.732 0-.13.003-.276.01-.438.013-.162.03-.315.049-.457h2.13v.75h-1.147v.174c0 .552.09.931.272 1.139.188.2.467.301.837.301.266 0 .496-.051.69-.155.202-.11.354-.302.458-.574.11-.273.166-.662.166-1.168 0-.675-.117-1.171-.35-1.489-.228-.324-.63-.487-1.207-.487-.305 0-.607.043-.905.127a3.128 3.128 0 0 0-.798.33v-.933c.2-.104.467-.192.798-.263.33-.078.684-.117 1.06-.117.584 0 1.058.117 1.421.35.363.227.63.552.798.974.169.421.253.917.253 1.488 0 .87-.182 1.544-.545 2.024-.357.474-.963.71-1.82.71zm5.644 0c-.733 0-1.278-.185-1.635-.555-.356-.37-.535-.947-.535-1.732 0-.13.004-.276.01-.438a8.26 8.26 0 0 1 .049-.457h2.13v.75h-1.147v.174c0 .552.09.931.272 1.139.188.2.467.301.837.301.266 0 .496-.051.69-.155.202-.11.354-.302.458-.574.11-.273.166-.662.166-1.168 0-.675-.117-1.171-.35-1.489-.228-.324-.63-.487-1.207-.487-.305 0-.607.043-.906.127a3.13 3.13 0 0 0-.797.33v-.933c.2-.104.467-.192.797-.263a4.618 4.618 0 0 1 1.061-.117c.584 0 1.058.117 1.421.35.363.227.63.552.798.974.169.421.253.917.253 1.488 0 .87-.182 1.544-.545 2.024-.357.474-.963.71-1.82.71zm3.64-.107v-1.781c0-.409.088-.71.263-.905.175-.195.406-.33.691-.409l.01-.039-1.06-.399v-.301c0-.28.087-.539.262-.779.182-.246.441-.444.779-.593.337-.156.746-.234 1.226-.234a3.1 3.1 0 0 1 1.148.204c.344.13.616.338.817.623.202.28.302.64.302 1.08v3.533h-1.041V40.59c0-.402-.117-.691-.35-.866-.234-.182-.532-.273-.896-.273-.37 0-.658.078-.866.234-.207.15-.314.34-.321.574l1.002.487-.087.515a.85.85 0 0 0-.604.244c-.155.155-.233.395-.233.72v1.81H79.73zm7.255.097a1.41 1.41 0 0 1-.818-.233c-.22-.163-.33-.448-.33-.857v-4.34h1.04v4.214c0 .142.03.246.088.311.059.059.16.088.302.088a.9.9 0 0 0 .175-.02 1.61 1.61 0 0 0 .185-.048l.117.73c-.124.058-.25.097-.38.116-.13.026-.256.04-.38.04zm2.734 0a1.41 1.41 0 0 1-.817-.233c-.22-.163-.331-.448-.331-.857v-4.34h1.041v4.214c0 .142.03.246.088.311.058.059.159.088.301.088a.9.9 0 0 0 .175-.02 1.53 1.53 0 0 0 .185-.048l.117.73c-.123.058-.25.097-.38.116-.13.026-.256.04-.379.04zm3.835.01c-.791 0-1.359-.182-1.703-.545-.344-.363-.516-.882-.516-1.557v-3.338h1.042v3.367c0 .402.094.707.282.915.194.201.493.302.895.302.409 0 .707-.101.895-.302.195-.208.292-.513.292-.915v-3.367h1.042v3.338c0 .675-.176 1.194-.526 1.557-.344.363-.911.545-1.703.545zm5.968 0c-.791 0-1.359-.182-1.703-.545-.344-.363-.516-.882-.516-1.557v-3.338h1.042v3.367c0 .402.094.707.282.915.195.201.493.302.895.302.409 0 .707-.101.895-.302.195-.208.292-.513.292-.915v-3.367h1.042v3.338c0 .675-.175 1.194-.526 1.557-.344.363-.911.545-1.703.545zm5.2-.01a1.41 1.41 0 0 1-.818-.233c-.221-.163-.331-.448-.331-.857v-5.011c0-.364.049-.633.146-.808.104-.175.221-.311.351-.409l-.01-.039h-1.635l.233-.788h2.852v.788a.92.92 0 0 0-.633.234c-.175.156-.263.441-.263.856v5.05c0 .144.03.247.088.312.058.059.159.088.302.088.052 0 .11-.007.175-.02.065-.013.126-.029.185-.048l.117.73a1.36 1.36 0 0 1-.38.116c-.13.026-.256.04-.379.04zm3.392 0c-.525 0-.941-.12-1.246-.36a1.924 1.924 0 0 1-.632-.973 4.79 4.79 0 0 1-.185-1.382c0-.74.104-1.314.311-1.722.208-.409.497-.694.866-.857.37-.162.798-.243 1.285-.243.811 0 1.395.172 1.752.516.357.344.535.807.535 1.391v3.533h-1.041V40.6c0-.377-.094-.662-.283-.857-.181-.194-.496-.292-.943-.292-.279 0-.526.052-.74.156-.214.104-.383.299-.506.584-.123.279-.185.688-.185 1.226 0 .357.036.675.107.954.071.279.191.5.36.662.175.162.415.243.72.243.182 0 .341-.023.477-.068l.097.798a1.371 1.371 0 0 1-.36.097 2.68 2.68 0 0 1-.389.03zm-.212-6.238v-.447c.116-.026.24-.062.369-.107.13-.052.24-.117.331-.195a.39.39 0 0 0 .127-.302.301.301 0 0 0-.068-.204c-.052-.052-.127-.078-.224-.078a.448.448 0 0 0-.185.04 2.244 2.244 0 0 0-.175.058l-.195-.565c.13-.104.279-.172.448-.204.168-.04.308-.059.418-.059.266 0 .477.072.633.214a.747.747 0 0 1 .224.565c0 .194-.065.37-.195.525h1.557v.76h-3.065z" fill="#fff"/></svg>