<svg width="195" height="82" fill="none" xmlns="http://www.w3.org/2000/svg"><path d="M21.173 15.468c0 2.563-.486 4.702-1.457 6.417-.95 1.715-2.294 2.997-4.03 3.844C13.95 26.576 11.904 27 9.548 27H2.387V4.866h7.657c3.555 0 6.293.91 8.215 2.728 1.943 1.819 2.914 4.443 2.914 7.874zm-6.2.217c0-3.989-1.622-5.983-4.867-5.983H8.37v12.4h1.333c1.819 0 3.152-.527 3.999-1.581.847-1.054 1.271-2.666 1.271-4.836zm19.573-6.138c.33 0 .671.031 1.023.093.351.041.61.072.775.093l-.527 5.58a9.379 9.379 0 0 0-2.015-.186c-.496 0-1.034.072-1.612.217-.579.145-1.075.465-1.488.961-.393.475-.59 1.23-.59 2.263V27h-5.92V9.857h4.402l.93 2.728h.279a6.315 6.315 0 0 1 1.984-2.139c.868-.6 1.787-.899 2.759-.899zm10.67 0c2.501 0 4.475.651 5.921 1.953 1.447 1.302 2.17 3.265 2.17 5.89v2.635h-10.57c.04.889.371 1.622.991 2.201.641.579 1.56.868 2.76.868 1.074 0 2.056-.103 2.944-.31a13.513 13.513 0 0 0 2.76-.992v4.247a10.4 10.4 0 0 1-2.729.961c-.97.207-2.2.31-3.689.31-1.736 0-3.286-.3-4.65-.899a7.226 7.226 0 0 1-3.193-2.852c-.785-1.302-1.178-2.976-1.178-5.022 0-2.046.352-3.73 1.054-5.053.724-1.343 1.716-2.335 2.976-2.976 1.282-.64 2.76-.961 4.433-.961zm.217 4.03c-.702 0-1.291.217-1.767.651-.454.434-.723 1.126-.806 2.077h5.084c-.02-.765-.248-1.405-.682-1.922-.413-.537-1.023-.806-1.829-.806zm18.977-4.03c2.17 0 3.865.537 5.085 1.612 1.219 1.075 1.828 2.604 1.828 4.588V27h-4.091l-1.147-2.263h-.124a10.04 10.04 0 0 1-1.489 1.488 4.795 4.795 0 0 1-1.735.806c-.662.186-1.468.279-2.419.279-1.487 0-2.727-.455-3.72-1.364-.992-.91-1.487-2.304-1.487-4.185 0-1.84.63-3.203 1.89-4.092 1.282-.889 3.132-1.385 5.55-1.488l2.852-.093v-.248c0-.765-.187-1.302-.559-1.612-.371-.33-.878-.496-1.518-.496-.682 0-1.437.124-2.264.372-.826.227-1.663.527-2.51.899l-1.706-3.906c.993-.517 2.109-.899 3.349-1.147 1.26-.269 2.666-.403 4.215-.403zm1.023 9.796-1.364.062c-1.095.041-1.86.238-2.294.589-.433.33-.65.806-.65 1.426 0 .579.154 1.013.465 1.302.31.269.723.403 1.24.403.723 0 1.332-.227 1.829-.682.516-.455.774-1.044.774-1.767v-1.333zM95.66 9.547c1.963 0 3.462.506 4.495 1.519 1.033.992 1.55 2.583 1.55 4.774V27h-5.921v-9.331c0-1.302-.176-2.201-.527-2.697-.351-.517-.868-.775-1.55-.775-.95 0-1.612.424-1.984 1.271-.372.827-.558 2.005-.558 3.534V27h-5.921v-9.331c0-1.24-.165-2.129-.496-2.666-.33-.537-.827-.806-1.488-.806-1.013 0-1.705.465-2.077 1.395-.351.91-.527 2.211-.527 3.906V27h-5.921V9.857h4.464l.868 2.108h.155c.455-.703 1.106-1.281 1.953-1.736.868-.455 1.932-.682 3.193-.682 1.26 0 2.294.217 3.1.651a5.29 5.29 0 0 1 2.015 1.736h.186a5.38 5.38 0 0 1 2.077-1.767c.868-.413 1.84-.62 2.914-.62z" fill="#8EEDE6"/><path d="M12.245 38.454c-1.405 0-2.511.579-3.317 1.736s-1.209 2.77-1.209 4.836c0 2.087.393 3.679 1.178 4.774.806 1.075 2.036 1.612 3.689 1.612.971 0 1.912-.134 2.821-.403.93-.269 1.86-.6 2.79-.992v5.053c-.971.434-1.974.744-3.007.93-1.033.207-2.118.31-3.255.31-2.418 0-4.392-.475-5.921-1.426-1.509-.95-2.625-2.273-3.348-3.968-.723-1.715-1.085-3.689-1.085-5.921s.413-4.206 1.24-5.921c.827-1.715 2.036-3.059 3.627-4.03 1.612-.992 3.565-1.488 5.859-1.488 1.075 0 2.201.124 3.379.372s2.335.64 3.472 1.178l-1.829 4.712a16.242 16.242 0 0 0-2.449-.961 8.472 8.472 0 0 0-2.635-.403zm25.68 8.928c0 2.873-.764 5.084-2.293 6.634-1.53 1.53-3.627 2.294-6.293 2.294-1.653 0-3.12-.341-4.402-1.023-1.282-.703-2.294-1.715-3.038-3.038-.724-1.343-1.085-2.966-1.085-4.867 0-2.831.764-5.012 2.294-6.541 1.53-1.53 3.637-2.294 6.324-2.294 1.653 0 3.11.341 4.37 1.023 1.282.682 2.285 1.684 3.008 3.007.744 1.302 1.116 2.904 1.116 4.805zm-11.097 0c0 1.467.196 2.594.589 3.379.392.765 1.054 1.147 1.984 1.147.91 0 1.55-.382 1.922-1.147.392-.785.589-1.912.589-3.379 0-1.447-.197-2.542-.59-3.286-.371-.765-1.022-1.147-1.952-1.147-.91 0-1.56.382-1.953 1.147-.393.744-.59 1.84-.59 3.286zm24.574-8.835c1.777 0 3.224.506 4.34 1.519 1.116.992 1.674 2.583 1.674 4.774V56h-5.92v-9.362c0-1.137-.166-1.994-.497-2.573-.33-.579-.858-.868-1.58-.868-1.117 0-1.871.465-2.264 1.395-.372.91-.558 2.211-.558 3.906V56h-5.92V38.857h4.463l.806 2.263h.217a5.633 5.633 0 0 1 2.108-1.891c.889-.455 1.932-.682 3.131-.682zM73.565 50.73c0 1.075-.248 2.036-.744 2.883-.476.847-1.25 1.509-2.325 1.984-1.054.475-2.45.713-4.185.713-1.22 0-2.315-.072-3.286-.217a13.14 13.14 0 0 1-2.914-.744v-4.743c1.095.496 2.2.858 3.317 1.085 1.116.207 1.994.31 2.635.31 1.281 0 1.922-.29 1.922-.868 0-.248-.104-.465-.31-.651-.207-.186-.579-.393-1.116-.62a85.94 85.94 0 0 0-2.232-.93c-1.426-.579-2.49-1.26-3.193-2.046-.703-.785-1.054-1.88-1.054-3.286 0-1.674.64-2.935 1.922-3.782 1.302-.847 3.017-1.271 5.146-1.271 1.136 0 2.2.124 3.193.372.992.248 2.025.61 3.1 1.085l-1.612 3.813a15.375 15.375 0 0 0-2.573-.93c-.868-.227-1.56-.341-2.077-.341-.972 0-1.457.238-1.457.713 0 .227.082.424.248.589.186.145.527.33 1.023.558.496.207 1.219.496 2.17.868.992.413 1.808.847 2.449 1.302.661.455 1.147 1.013 1.457 1.674.33.661.496 1.488.496 2.48zm11.054.899c.517 0 1.003-.052 1.457-.155.455-.124.92-.269 1.395-.434v4.309c-.64.269-1.322.496-2.046.682-.723.186-1.643.279-2.759.279-1.116 0-2.097-.176-2.945-.527-.847-.351-1.508-.95-1.984-1.798-.454-.868-.682-2.077-.682-3.627V43.29h-2.077v-2.418l2.635-1.86 1.52-3.596h3.874v3.441h4.216v4.433h-4.216v6.665c0 1.116.538 1.674 1.612 1.674zm8.245-19.685c.847 0 1.581.176 2.201.527.64.351.961 1.054.961 2.108 0 1.013-.32 1.705-.96 2.077-.62.351-1.355.527-2.202.527-.868 0-1.612-.176-2.232-.527-.6-.372-.899-1.064-.899-2.077 0-1.054.3-1.757.9-2.108.62-.351 1.363-.527 2.231-.527zm2.945 6.913V56h-5.92V38.857h5.92zm11.91 12.772c.517 0 1.003-.052 1.457-.155.455-.124.92-.269 1.395-.434v4.309c-.64.269-1.322.496-2.046.682-.723.186-1.643.279-2.759.279-1.116 0-2.097-.176-2.945-.527-.847-.351-1.508-.95-1.984-1.798-.454-.868-.682-2.077-.682-3.627V43.29h-2.077v-2.418l2.635-1.86 1.519-3.596h3.875v3.441h4.216v4.433h-4.216v6.665c0 1.116.538 1.674 1.612 1.674zm21.916-12.772V56h-4.464l-.744-2.139h-.341a4.667 4.667 0 0 1-2.201 1.891 7.938 7.938 0 0 1-2.976.558c-1.116 0-2.129-.217-3.038-.651-.909-.434-1.633-1.116-2.17-2.046-.517-.93-.775-2.129-.775-3.596v-11.16h5.921v9.362c0 1.116.155 1.963.465 2.542.331.579.858.868 1.581.868 1.116 0 1.86-.444 2.232-1.333.393-.91.589-2.222.589-3.937v-7.502h5.921zm11.871 12.772a6.59 6.59 0 0 0 1.457-.155c.454-.124.919-.269 1.395-.434v4.309c-.641.269-1.323.496-2.046.682-.724.186-1.643.279-2.759.279-1.116 0-2.098-.176-2.945-.527-.848-.351-1.509-.95-1.984-1.798-.455-.868-.682-2.077-.682-3.627V43.29h-2.077v-2.418l2.635-1.86 1.519-3.596h3.875v3.441h4.216v4.433h-4.216v6.665c0 1.116.537 1.674 1.612 1.674zm8.244-19.685c.848 0 1.581.176 2.201.527.641.351.961 1.054.961 2.108 0 1.013-.32 1.705-.961 2.077-.62.351-1.353.527-2.201.527-.868 0-1.612-.176-2.232-.527-.599-.372-.899-1.064-.899-2.077 0-1.054.3-1.757.899-2.108.62-.351 1.364-.527 2.232-.527zm2.945 6.913V56h-5.921V38.857h5.921zm19.877 8.525c0 2.873-.764 5.084-2.294 6.634-1.529 1.53-3.627 2.294-6.293 2.294-1.653 0-3.12-.341-4.402-1.023-1.281-.703-2.294-1.715-3.038-3.038-.723-1.343-1.085-2.966-1.085-4.867 0-2.831.765-5.012 2.294-6.541 1.53-1.53 3.638-2.294 6.324-2.294 1.654 0 3.111.341 4.371 1.023 1.282.682 2.284 1.684 3.007 3.007.744 1.302 1.116 2.904 1.116 4.805zm-11.098 0c0 1.467.197 2.594.589 3.379.393.765 1.054 1.147 1.984 1.147.91 0 1.55-.382 1.922-1.147.393-.785.589-1.912.589-3.379 0-1.447-.196-2.542-.589-3.286-.372-.765-1.023-1.147-1.953-1.147-.909 0-1.56.382-1.953 1.147-.392.744-.589 1.84-.589 3.286zm24.575-8.835c1.777 0 3.224.506 4.34 1.519 1.116.992 1.674 2.583 1.674 4.774V56h-5.921v-9.362c0-1.137-.166-1.994-.496-2.573-.331-.579-.858-.868-1.581-.868-1.116 0-1.871.465-2.263 1.395-.372.91-.558 2.211-.558 3.906V56h-5.921V38.857h4.464l.806 2.263h.217a5.63 5.63 0 0 1 2.108-1.891c.888-.455 1.932-.682 3.131-.682z" fill="#FAD749"/><path d="m19.716 21.885-.653-.37-.003.006.656.364zm-4.03 3.844.329.674-.329-.674zM2.387 27h-.75v.75h.75V27zm0-22.134v-.75h-.75v.75h.75zm15.872 2.728-.515.545.002.003.513-.548zM8.37 9.702v-.75h-.75v.75h.75zm0 12.4h-.75v.75h.75v-.75zm5.332-1.581.585.47-.585-.47zm6.721-5.053c0 2.471-.468 4.474-1.36 6.047l1.306.74c1.051-1.857 1.554-4.133 1.554-6.787h-1.5zm-1.363 6.053c-.877 1.583-2.107 2.755-3.703 3.534l.658 1.348c1.877-.916 3.333-2.307 4.357-4.154l-1.312-.728zm-3.703 3.534c-1.614.788-3.542 1.195-5.809 1.195v1.5c2.445 0 4.608-.44 6.467-1.347l-.658-1.348zM9.548 26.25H2.387v1.5h7.161v-1.5zM3.137 27V4.866h-1.5V27h1.5zm-.75-21.384h7.657v-1.5H2.387v1.5zm7.657 0c3.43 0 5.959.876 7.7 2.523l1.03-1.09c-2.103-1.99-5.05-2.933-8.73-2.933v1.5zm7.702 2.526c1.75 1.638 2.677 4.04 2.677 7.326h1.5c0-3.575-1.016-6.423-3.151-8.422l-1.026 1.096zm-2.023 7.543c0-2.077-.42-3.773-1.385-4.96-.99-1.217-2.448-1.773-4.232-1.773v1.5c1.461 0 2.436.441 3.068 1.219.657.807 1.049 2.102 1.049 4.014h1.5zm-5.617-6.733H8.37v1.5h1.736v-1.5zm-2.486.75v12.4h1.5v-12.4h-1.5zm.75 13.15h1.333v-1.5H8.37v1.5zm1.333 0c1.962 0 3.549-.574 4.584-1.861l-1.17-.94c-.66.82-1.739 1.301-3.414 1.301v1.5zm4.584-1.861c1.002-1.247 1.436-3.061 1.436-5.306h-1.5c0 2.095-.413 3.505-1.106 4.366l1.17.94zM35.569 9.64l-.13.739.02.003.022.003.088-.745zm.775.093.746.07.069-.724-.722-.09-.093.744zm-.527 5.58-.148.735.816.164.078-.829-.746-.07zm-.775-.124-.106.742.007.001.099-.743zm-2.852.155-.182-.728.182.728zm-1.488.961-.577-.48-.002.002.579.478zM30.112 27v.75h.75V27h-.75zm-5.92 0h-.75v.75h.75V27zm0-17.143v-.75h-.75v.75h.75zm4.402 0 .71-.242-.174-.508h-.536v.75zm.93 2.728-.71.242.173.508h.537v-.75zm.279 0v.75h.439l.215-.383-.654-.367zm1.984-2.139.423.62.003-.003-.426-.617zm2.759-.149c.283 0 .58.027.892.082L35.7 8.9a6.634 6.634 0 0 0-1.153-.104v1.5zm.935.088.77.092.186-1.488c-.168-.021-.43-.053-.78-.094l-.176 1.49zm.116-.723-.527 5.58 1.493.141.527-5.58-1.493-.14zm.367 4.916c-.228-.046-.504-.09-.823-.132l-.198 1.486c.3.04.541.08.727.116l.294-1.47zm-.816-.131a9.881 9.881 0 0 0-1.346-.07v1.5a8.7 8.7 0 0 1 1.134.054l.212-1.484zm-1.346-.07c-.569 0-1.168.083-1.794.24l.363 1.455a5.93 5.93 0 0 1 1.43-.195v-1.5zm-1.794.24c-.746.186-1.376.6-1.883 1.208l1.153.96c.32-.384.682-.61 1.093-.713l-.363-1.456zm-1.885 1.21c-.557.675-.76 1.642-.76 2.741h1.5c0-.967.189-1.51.417-1.785l-1.157-.956zm-.76 2.741V27h1.5v-8.432h-1.5zm.75 7.682h-5.921v1.5h5.92v-1.5zm-5.171.75V9.857h-1.5V27h1.5zm-.75-16.393h4.402v-1.5h-4.402v1.5zm3.692-.508.93 2.728 1.42-.484-.93-2.728-1.42.484zm1.64 3.236h.279v-1.5h-.28v1.5zm.933-.383a5.56 5.56 0 0 1 1.753-1.887l-.846-1.238a7.062 7.062 0 0 0-2.216 2.391l1.309.734zm1.756-1.889c.754-.52 1.527-.766 2.333-.766v-1.5c-1.137 0-2.203.354-3.186 1.032l.853 1.234zm18.924.437-.501.557.501-.557zm2.17 8.525v.75h.75v-.75h-.75zm-10.57 0v-.75h-.786l.036.785.75-.035zm.991 2.201-.511.548.009.009.502-.557zm5.704.558.17.73-.17-.73zm2.76-.992h.75v-1.19l-1.074.513.323.677zm0 4.247.348.664.401-.21v-.454h-.75zm-2.73.961-.153-.734h-.003l.156.734zm-8.339-.589-.314.681.013.006.301-.687zm-3.193-2.852-.642.387.003.005.64-.392zm-.124-10.075-.66-.356-.002.004.662.352zm2.976-2.976-.335-.67-.004.001.34.669zm2.883 3.72-.505-.554-.006.006-.007.005.518.543zm-.806 2.077-.747-.065-.07.815h.817v-.75zm5.084 0v.75h.771l-.02-.77-.75.02zm-.682-1.922-.594.457.01.013.01.012.574-.482zm-2.046-4.086c2.37 0 4.146.614 5.42 1.76l1.003-1.114c-1.62-1.459-3.791-2.146-6.423-2.146v1.5zm5.42 1.76c1.239 1.115 1.921 2.843 1.921 5.333h1.5c0-2.76-.764-4.959-2.418-6.447l-1.003 1.114zm1.921 5.333v2.635h1.5V17.39h-1.5zm.75 1.885h-10.57v1.5h10.57v-1.5zm-11.32.785c.05 1.074.459 1.995 1.23 2.714l1.023-1.096c-.47-.438-.722-.984-.754-1.688l-1.499.07zm1.239 2.723c.824.744 1.95 1.061 3.261 1.061v-1.5c-1.085 0-1.799-.262-2.256-.675l-1.005 1.114zm3.261 1.061c1.122 0 2.162-.108 3.115-.33l-.34-1.46c-.824.191-1.747.29-2.775.29v1.5zm3.115-.33c.95-.22 1.92-.57 2.913-1.045l-.647-1.354c-.91.435-1.777.746-2.605.939l.34 1.46zm1.84-1.722v4.247h1.5v-4.247h-1.5zm.4 3.583a9.65 9.65 0 0 1-2.532.89l.306 1.47c1.055-.22 2.03-.563 2.924-1.032l-.697-1.328zm-2.535.891c-.901.192-2.074.294-3.533.294v1.5c1.518 0 2.804-.105 3.846-.326l-.313-1.468zm-3.533.294c-1.649 0-3.093-.284-4.348-.836l-.603 1.374c1.473.647 3.129.962 4.951.962v-1.5zm-4.335-.83a6.475 6.475 0 0 1-2.868-2.563l-1.279.784a7.975 7.975 0 0 0 3.518 3.141l.629-1.362zm-2.865-2.558c-.695-1.152-1.07-2.68-1.07-4.635h-1.5c0 2.137.409 3.957 1.285 5.41l1.285-.775zm-1.07-4.635c0-1.966.338-3.52.966-4.701l-1.325-.704c-.777 1.463-1.142 3.28-1.142 5.405h1.5zm.964-4.697c.657-1.22 1.542-2.098 2.655-2.663l-.68-1.338c-1.407.716-2.506 1.823-3.296 3.29l1.32.71zm2.65-2.661c1.162-.58 2.521-.882 4.098-.882v-1.5c-1.77 0-3.366.34-4.768 1.04l.67 1.342zm4.315 1.648c-.87 0-1.646.275-2.272.847l1.011 1.108c.324-.296.727-.455 1.261-.455v-1.5zm-2.285.858c-.64.612-.944 1.513-1.035 2.555l1.495.13c.074-.86.307-1.343.576-1.6l-1.035-1.085zm-.288 3.37h5.084v-1.5H42.86v1.5zm5.834-.77c-.025-.91-.3-1.72-.857-2.384l-1.149.964c.31.37.49.841.507 1.46l1.5-.04zm-.837-2.36c-.583-.757-1.434-1.098-2.424-1.098v1.5c.623 0 .991.196 1.235.513l1.189-.914zm21.638-2.766.495-.563-.495.563zM71.323 27v.75h.75V27h-.75zm-4.091 0-.67.34.209.41h.46V27zm-1.147-2.263.669-.34-.209-.41h-.46v.75zm-.124 0v-.75h-.353l-.225.272.578.478zm-1.489 1.488.45.6.008-.006.008-.006-.466-.588zm-1.735.806-.182-.728-.011.003-.01.003.203.722zm-6.139-1.085.507-.553-.506.553zm.404-8.277-.428-.616-.005.003.432.613zm5.548-1.488-.024-.75h-.008l.032.75zm2.853-.093.024.75.725-.024v-.726h-.75zm-.559-1.86-.498.56.01.008.008.008.48-.576zm-3.781-.124.198.723.009-.002.008-.003-.215-.718zm-2.512.899-.687.3.3.689.689-.302-.302-.687zm-1.705-3.906-.346-.665-.621.323.28.642.688-.3zm3.349-1.147.147.736.009-.002-.157-.734zm5.238 9.393h.75v-.785l-.784.036.034.749zm-1.364.062.029.75h.005l-.033-.75zm-2.294.589.455.597.009-.007.008-.007-.471-.583zm-.185 2.728-.512.548.01.01.01.009.492-.567zm3.069-.279-.496-.563-.006.005-.005.005.507.553zm-.249-12.146c2.05 0 3.547.506 4.589 1.425l.991-1.126c-1.396-1.23-3.289-1.799-5.58-1.799v1.5zM69 11.722c1.022.901 1.575 2.205 1.575 4.025h1.5c0-2.148-.668-3.903-2.084-5.15L69 11.721zm1.575 4.025V27h1.5V15.747h-1.5zm.75 10.503H67.23v1.5h4.093v-1.5zm-3.424.41-1.147-2.262-1.338.678 1.147 2.263 1.338-.678zm-1.816-2.673h-.124v1.5h.125v-1.5zm-.701.272a9.36 9.36 0 0 1-1.376 1.378l.931 1.176a10.844 10.844 0 0 0 1.6-1.598l-1.155-.956zm-1.36 1.366a4.047 4.047 0 0 1-1.468.678l.363 1.456a5.544 5.544 0 0 0 2.005-.934l-.9-1.2zm-1.49.684c-.575.162-1.308.251-2.215.251v1.5c.996 0 1.874-.097 2.622-.307l-.407-1.444zm-2.215.251c-1.321 0-2.374-.398-3.213-1.167L56.092 26.5c1.145 1.05 2.572 1.561 4.227 1.561v-1.5zm-3.213-1.167c-.783-.718-1.244-1.876-1.244-3.632h-1.5c0 2.005.53 3.637 1.73 4.738l1.014-1.106zm-1.244-3.632c0-1.649.551-2.76 1.573-3.479l-.865-1.226c-1.5 1.057-2.209 2.675-2.209 4.705h1.5zm1.568-3.476c1.117-.774 2.805-1.254 5.154-1.355l-.064-1.498c-2.488.106-4.5.618-5.945 1.62l.855 1.233zm5.146-1.354 2.852-.093-.049-1.5-2.852.093.049 1.5zm3.578-.843v-.248h-1.5v.248h1.5zm0-.248c0-.859-.207-1.67-.828-2.188l-.96 1.152c.122.102.288.365.288 1.036h1.5zm-.81-2.173c-.545-.484-1.247-.685-2.018-.685v1.5c.512 0 .822.13 1.021.307l.997-1.122zm-2.018-.685c-.77 0-1.6.14-2.478.404l.431 1.436c.774-.232 1.455-.34 2.047-.34v-1.5zm-2.461.399c-.865.237-1.736.55-2.614.935l.603 1.374a17.62 17.62 0 0 1 2.408-.863l-.397-1.446zm-1.625 1.322-1.705-3.906-1.375.6 1.705 3.906 1.375-.6zm-2.046-2.94c.922-.48 1.97-.842 3.149-1.078l-.295-1.47c-1.3.26-2.485.663-3.547 1.217l.693 1.33zm3.158-1.08c1.2-.255 2.552-.386 4.06-.386v-1.5c-1.593 0-3.052.138-4.373.42l.313 1.466zm5.048 7.91-1.364.063.069 1.498 1.364-.062-.069-1.498zm-1.358.063c-1.125.042-2.104.242-2.737.755l.943 1.166c.234-.19.786-.382 1.85-.423l-.056-1.498zm-2.72.741c-.647.494-.947 1.205-.947 2.023h1.5c0-.422.135-.661.356-.83l-.909-1.193zm-.947 2.023c0 .708.193 1.373.704 1.85l1.023-1.096c-.109-.102-.227-.305-.227-.754h-1.5zm.724 1.869c.48.415 1.083.586 1.732.586v-1.5c-.385 0-.608-.098-.75-.22l-.982 1.134zm1.732.586c.895 0 1.69-.288 2.335-.88l-1.013-1.105c-.347.318-.772.485-1.322.485v1.5zm2.324-.869c.688-.605 1.03-1.404 1.03-2.33h-1.5c0 .52-.175.9-.521 1.204l.991 1.126zm1.03-2.33v-1.333h-1.5v1.333h1.5zm33.971-9.61-.525.536.005.005.52-.541zM101.705 27v.75h.75V27h-.75zm-5.921 0h-.75v.75h.75V27zm-.527-12.028-.62.422.004.006.004.005.612-.433zm-3.534.496.684.308.003-.006-.687-.302zM91.165 27v.75h.75V27h-.75zm-5.921 0h-.75v.75h.75V27zm-4.061-11.408-.697-.279-.003.009.7.27zM80.656 27v.75h.75V27h-.75zm-5.921 0h-.75v.75h.75V27zm0-17.143v-.75h-.75v.75h.75zm4.464 0 .693-.286-.19-.464h-.503v.75zm.868 2.108-.694.286.192.464h.502v-.75zm.155 0v.75h.408l.222-.343-.63-.407zm1.953-1.736-.348-.664-.007.003.355.661zm6.293-.031-.356.66.01.006.01.005.336-.671zm2.015 1.736-.616.428.224.322h.392v-.75zm.186 0v.75h.39l.224-.319-.614-.431zm2.077-1.767-.322-.677-.007.003.329.674zm2.914.13c1.839 0 3.12.473 3.97 1.305l1.05-1.072c-1.218-1.193-2.932-1.733-5.02-1.733v1.5zm3.975 1.31c.824.79 1.32 2.14 1.32 4.233h1.5c0-2.288-.538-4.122-1.781-5.315l-1.039 1.082zm1.32 4.233V27h1.5V15.84h-1.5zm.75 10.41h-5.921v1.5h5.921v-1.5zm-5.171.75v-9.331h-1.5V27h1.5zm0-9.331c0-1.315-.167-2.427-.665-3.13l-1.224.867c.204.288.389.974.389 2.263h1.5zm-.657-3.119c-.505-.743-1.266-1.103-2.17-1.103v1.5c.46 0 .733.157.93.447l1.24-.844zm-2.17-1.103c-.588 0-1.139.132-1.614.436-.476.305-.822.749-1.057 1.284l1.374.603c.137-.313.307-.505.493-.624.186-.12.442-.199.804-.199v-1.5zm-2.668 1.713c-.436.968-.624 2.27-.624 3.842h1.5c0-1.486.183-2.54.492-3.226l-1.368-.616zm-.624 3.842V27h1.5v-7.998h-1.5zm.75 7.248h-5.921v1.5h5.92v-1.5zm-5.171.75v-9.331h-1.5V27h1.5zm0-9.331c0-1.268-.162-2.335-.607-3.06l-1.278.787c.216.351.385 1.06.385 2.273h1.5zm-.607-3.06c-.475-.77-1.22-1.162-2.127-1.162v1.5c.416 0 .663.146.85.45l1.277-.787zm-2.127-1.162c-.623 0-1.203.144-1.697.476-.495.332-.846.814-1.076 1.39l1.392.557c.142-.353.323-.569.52-.702.198-.133.471-.221.86-.221v-1.5zm-2.777 1.875c-.4 1.037-.577 2.447-.577 4.176h1.5c0-1.66.174-2.854.476-3.636l-1.399-.54zm-.577 4.176V27h1.5v-7.502h-1.5zm.75 6.752h-5.921v1.5h5.92v-1.5zm-5.171.75V9.857h-1.5V27h1.5zm-.75-16.393h4.464v-1.5h-4.464v1.5zm3.77-.464.868 2.108 1.387-.572-.868-2.108-1.387.572zm1.562 2.572h.155v-1.5h-.155v1.5zm.785-.343c.376-.58.925-1.078 1.678-1.482l-.71-1.322c-.942.506-1.695 1.166-2.228 1.99l1.26.814zm1.67-1.479c.735-.384 1.673-.596 2.846-.596v-1.5c-1.348 0-2.54.243-3.541.768l.696 1.328zm2.846-.596c1.181 0 2.081.204 2.744.561l.712-1.32c-.95-.511-2.116-.741-3.456-.741v1.5zm2.764.572a4.54 4.54 0 0 1 1.735 1.493l1.232-.856a6.042 6.042 0 0 0-2.296-1.979l-.67 1.342zm2.35 1.815h.187v-1.5h-.186v1.5zm.8-.319a4.628 4.628 0 0 1 1.793-1.524l-.658-1.348a6.129 6.129 0 0 0-2.362 2.01l1.228.862zm1.786-1.52c.756-.36 1.616-.548 2.592-.548v-1.5c-1.173 0-2.257.226-3.236.693l.644 1.354zM8.928 40.19l-.615-.429.615.429zm-.031 9.61-.61.437.005.007.005.006.6-.45zm6.51 1.209-.208-.72h-.005l.213.72zm2.79-.992h.75v-1.13l-1.042.44.292.69zm0 5.053.306.685.444-.199v-.486h-.75zM15.19 56l-.133-.738-.007.001-.007.002.147.735zm-9.176-1.116-.4.635.004.002.396-.637zm-3.348-3.968-.691.291.001.003.69-.294zm.155-11.842.676.326-.676-.326zm3.627-4.03.39.64.003-.001-.393-.639zm9.238-1.116-.155.734.155-.734zm3.472 1.178.7.271.252-.65-.631-.3-.321.679zm-1.829 4.712-.329.674.733.357.295-.76-.699-.271zm-2.449-.961-.232.713.008.003.008.002.216-.718zm-2.635-1.153c-1.652 0-2.987.7-3.932 2.057l1.23.858c.667-.957 1.543-1.415 2.702-1.415v-1.5zm-3.932 2.057c-.926 1.33-1.344 3.113-1.344 5.265h1.5c0-1.981.388-3.422 1.074-4.407l-1.23-.858zm-1.344 5.265c0 2.164.404 3.936 1.318 5.211l1.22-.874c-.657-.915-1.038-2.326-1.038-4.337h-1.5zm1.328 5.224c.98 1.307 2.46 1.912 4.289 1.912v-1.5c-1.478 0-2.457-.47-3.089-1.312l-1.2.9zm4.289 1.912c1.041 0 2.053-.144 3.034-.434l-.425-1.438a9.153 9.153 0 0 1-2.609.372v1.5zm3.03-.432a25.91 25.91 0 0 0 2.873-1.022l-.584-1.382c-.904.382-1.806.702-2.706.962l.416 1.442zm1.831-1.713v5.053h1.5v-5.053h-1.5zm.444 4.368c-.917.41-1.861.702-2.834.877l.266 1.476a13.738 13.738 0 0 0 3.18-.983l-.612-1.37zm-2.848.88a15.84 15.84 0 0 1-3.108.295v1.5c1.182 0 2.317-.108 3.402-.325l-.294-1.47zm-3.108.295c-2.325 0-4.149-.457-5.525-1.313l-.792 1.274c1.682 1.046 3.806 1.539 6.317 1.539v-1.5zm-5.521-1.31c-1.375-.867-2.393-2.069-3.058-3.628l-1.38.588c.781 1.83 1.996 3.274 3.638 4.309l.8-1.27zm-3.057-3.625c-.677-1.607-1.026-3.479-1.026-5.63h-1.5c0 2.313.375 4.388 1.144 6.212l1.382-.582zm-1.026-5.63c0-2.139.396-3.998 1.166-5.595l-1.352-.652C1.262 40.581.831 42.67.831 44.995h1.5zM3.497 39.4c.765-1.589 1.876-2.821 3.342-3.716l-.782-1.28c-1.717 1.048-3.024 2.502-3.912 4.344l1.352.652zm3.344-3.717c1.471-.905 3.281-1.377 5.466-1.377v-1.5c-2.403 0-4.499.52-6.252 1.6l.786 1.277zm5.466-1.377c1.017 0 2.091.117 3.224.356l.31-1.468a17.152 17.152 0 0 0-3.534-.388v1.5zm3.224.356c1.119.235 2.22.609 3.306 1.122l.642-1.356a16.403 16.403 0 0 0-3.638-1.234l-.31 1.468zm2.928.173-1.83 4.712 1.4.542 1.828-4.712-1.398-.542zm-.802 4.309a16.992 16.992 0 0 0-2.562-1.005l-.43 1.436c.786.236 1.565.542 2.335.917l.657-1.348zm-2.545-1a9.224 9.224 0 0 0-2.867-.44v1.5c.857 0 1.657.124 2.403.366l.464-1.426zm20.52 15.872.53.53.004-.003-.534-.527zm-10.695 1.271-.36.658.007.004.353-.662zm-3.038-3.038-.66.356.006.012.654-.368zm1.209-11.408-.53-.53.53.53zm10.695-1.271-.357.66.004.002.353-.662zm3.007 3.007-.658.36.007.012.65-.372zm-9.393 8.184-.671.335.004.008.667-.343zm3.906 0-.671-.335-.004.007.675.328zm0-6.665-.675.328.006.011.006.011.663-.35zm-3.906 0 .663.35.004-.007-.667-.343zm9.759 3.286c0 2.74-.727 4.738-2.078 6.107l1.068 1.054c1.707-1.731 2.51-4.156 2.51-7.161h-1.5zM35.1 53.486c-1.357 1.357-3.246 2.074-5.762 2.074v1.5c2.816 0 5.122-.812 6.823-2.514l-1.06-1.06zm-5.76 2.074c-1.548 0-2.891-.318-4.05-.935l-.705 1.324c1.404.747 2.996 1.111 4.755 1.111v-1.5zm-4.041-.93c-1.154-.633-2.067-1.543-2.745-2.749l-1.308.736c.81 1.44 1.922 2.555 3.331 3.328l.721-1.316zm-2.739-2.737c-.652-1.21-.995-2.704-.995-4.511h-1.5c0 1.995.38 3.746 1.174 5.223l1.321-.712zm-.995-4.511c0-2.696.725-4.661 2.074-6.01l-1.06-1.061c-1.71 1.71-2.514 4.105-2.514 7.071h1.5zm2.074-6.01c1.356-1.357 3.255-2.075 5.794-2.075v-1.5c-2.835 0-5.152.811-6.854 2.514l1.06 1.06zm5.794-2.075c1.548 0 2.879.319 4.014.933l.714-1.32c-1.386-.75-2.97-1.113-4.728-1.113v1.5zm4.018.935c1.147.61 2.046 1.505 2.702 2.705l1.316-.72c-.79-1.446-1.897-2.556-3.313-3.31l-.705 1.325zm2.709 2.717c.664 1.162 1.017 2.628 1.017 4.433h1.5c0-1.997-.391-3.735-1.215-5.177l-1.302.744zm-10.081 4.433c0 1.515.2 2.777.668 3.714l1.342-.67c-.317-.634-.51-1.625-.51-3.044h-1.5zm.672 3.722c.253.493.611.895 1.082 1.166.467.27 1 .388 1.569.388v-1.5c-.362 0-.624-.074-.818-.186-.191-.11-.36-.283-.499-.554l-1.334.686zm2.65 1.554c.561 0 1.088-.119 1.548-.393a2.725 2.725 0 0 0 1.05-1.176l-1.35-.656c-.13.27-.291.438-.469.544-.181.108-.43.181-.778.181v1.5zm2.594-1.562c.468-.937.668-2.199.668-3.714h-1.5c0 1.42-.193 2.41-.51 3.044l1.342.67zm.668-3.714c0-1.492-.199-2.732-.676-3.636l-1.326.7c.308.585.502 1.535.502 2.936h1.5zm-.665-3.614a2.705 2.705 0 0 0-1.062-1.179c-.464-.273-.997-.39-1.565-.39v1.5c.362 0 .62.074.806.184.182.107.343.274.472.541l1.35-.656zm-2.627-1.569c-.561 0-1.088.119-1.55.39a2.8 2.8 0 0 0-1.07 1.164l1.334.686c.14-.274.309-.447.495-.556.19-.111.442-.184.79-.184v-1.5zm-2.617 1.547c-.476.904-.675 2.144-.675 3.636h1.5c0-1.4.194-2.351.502-2.936l-1.326-.7zm28.99-3.68-.505.555.006.006.498-.561zM57.415 56v.75h.75V56h-.75zm-5.92 0h-.75v.75h.75V56zm-4.34-11.408-.692-.292-.003.008.694.284zM46.596 56v.75h.75V56h-.75zm-5.92 0h-.75v.75h.75V56zm0-17.143v-.75h-.75v.75h.75zm4.463 0 .707-.252-.178-.498h-.529v.75zm.806 2.263-.706.252.177.498h.53v-.75zm.217 0v.75h.402l.222-.334-.624-.416zm2.108-1.891-.342-.668-.006.004.348.664zm3.131.068c1.627 0 2.882.459 3.836 1.324l1.008-1.11c-1.278-1.16-2.916-1.714-4.844-1.714v1.5zm3.842 1.33c.893.793 1.422 2.135 1.422 4.213h1.5c0-2.303-.587-4.144-1.926-5.335l-.996 1.122zm1.422 4.213V56h1.5V44.84h-1.5zm.75 10.41h-5.92v1.5h5.92v-1.5zm-5.17.75v-9.362h-1.5V56h1.5zm0-9.362c0-1.186-.17-2.2-.596-2.945l-1.302.744c.235.412.397 1.114.397 2.201h1.5zm-.596-2.945c-.477-.836-1.267-1.246-2.232-1.246v1.5c.482 0 .746.168.93.49l1.302-.744zm-2.232-1.246c-.661 0-1.274.138-1.796.46-.528.326-.91.805-1.158 1.393l1.382.584c.145-.342.337-.56.563-.7.232-.143.554-.237 1.01-.237v-1.5zm-2.957 1.861c-.426 1.042-.614 2.458-.614 4.19h1.5c0-1.658.185-2.846.502-3.622l-1.388-.568zm-.614 4.19V56h1.5v-7.502h-1.5zm.75 6.752h-5.92v1.5h5.92v-1.5zm-5.17.75V38.857h-1.5V56h1.5zm-.75-16.393h4.463v-1.5h-4.464v1.5zm3.757-.498.806 2.263 1.413-.504-.806-2.263-1.413.504zm1.512 2.761h.217v-1.5h-.217v1.5zm.841-.334a4.882 4.882 0 0 1 1.832-1.643l-.696-1.328a6.382 6.382 0 0 0-2.384 2.139l1.248.832zm1.826-1.64c.763-.39 1.686-.599 2.79-.599v-1.5c-1.295 0-2.46.246-3.474.764l.684 1.336zM72.82 53.614l-.648-.379-.006.012.654.367zm-2.325 1.984-.304-.686-.005.002.309.684zm-7.471.496.11-.742-.013-.002-.097.744zm-2.914-.744h-.75v.52l.486.182.264-.702zm0-4.743.31-.683-1.06-.48v1.163h.75zm3.317 1.085-.15.735.013.002.137-.737zm4.247-1.209-.502.557.502-.557zm-1.116-.62-.302.687.01.004.292-.691zm-2.232-.93-.282.695.282-.695zm-3.193-2.046-.56.5.56-.5zm.868-7.068-.41-.629-.004.003.414.626zm8.339-.899-.182.728.182-.728zm3.1 1.085.69.292.288-.68-.675-.298-.303.686zm-1.612 3.813-.316.68.704.327.302-.715-.69-.292zm-2.573-.93-.19.725.19-.725zm-3.286.961-.53.53.032.033.037.029.46-.592zm1.023.558-.313.682.012.005.012.005.289-.692zm2.17.868.288-.692-.007-.004-.008-.002-.273.698zm2.449 1.302-.434.612.009.006.425-.618zm1.457 1.674-.68.318.005.009.004.008.67-.335zm-.254 2.48c0 .955-.22 1.782-.642 2.504l1.295.758c.57-.973.847-2.067.847-3.262h-1.5zm-.648 2.516c-.38.678-1.017 1.241-1.975 1.665l.607 1.372c1.191-.527 2.106-1.287 2.676-2.303l-1.308-.734zm-1.98 1.667c-.92.416-2.198.647-3.876.647v1.5c1.793 0 3.306-.244 4.493-.78l-.617-1.367zm-3.876.647c-1.191 0-2.249-.07-3.176-.209l-.22 1.484c1.015.151 2.148.225 3.396.225v-1.5zm-3.19-.21a12.397 12.397 0 0 1-2.747-.703l-.527 1.404c1.04.39 2.068.654 3.08.786l.195-1.488zm-2.26-.001v-4.743h-1.5v4.743h1.5zm-1.06-4.06a16.3 16.3 0 0 0 3.477 1.137l.3-1.47a14.806 14.806 0 0 1-3.158-1.033L59.8 51.29zm3.49 1.14c1.132.21 2.063.322 2.772.322v-1.5c-.573 0-1.399-.094-2.499-.297l-.273 1.474zm2.772.322c.673 0 1.283-.072 1.75-.283.243-.11.479-.271.655-.51.182-.247.267-.532.267-.825h-1.5c0 .002 0-.007.005-.023a.152.152 0 0 1 .021-.043c.016-.021.012-.002-.066.033-.173.079-.525.151-1.132.151v1.5zm2.672-1.618c0-.488-.215-.9-.559-1.209l-1.003 1.115a.24.24 0 0 1 .057.068c.002.004.005.01.005.026h1.5zm-.559-1.209c-.305-.274-.776-.52-1.325-.753l-.585 1.382c.526.222.8.39.907.486l1.003-1.114zm-1.315-.748a86.23 86.23 0 0 0-2.253-.94l-.562 1.391c.969.392 1.704.699 2.21.921l.605-1.373zm-2.252-.939c-1.365-.554-2.317-1.181-2.916-1.851l-1.118 1c.806.9 1.983 1.638 3.47 2.241l.564-1.39zm-2.916-1.851c-.544-.608-.863-1.503-.863-2.786h-1.5c0 1.527.383 2.823 1.245 3.786l1.118-1zM60.83 43.6c0-1.449.535-2.462 1.585-3.156l-.827-1.252c-1.513 1-2.258 2.509-2.258 4.408h1.5zm1.58-3.153c1.144-.744 2.702-1.15 4.738-1.15v-1.5c-2.222 0-4.094.442-5.555 1.392l.818 1.258zm4.738-1.15c1.082 0 2.085.118 3.01.35l.365-1.456a13.883 13.883 0 0 0-3.375-.394v1.5zm3.01.35c.946.236 1.938.582 2.98 1.043l.606-1.372a19.961 19.961 0 0 0-3.221-1.127l-.364 1.456zm2.592.065-1.612 3.813 1.381.584 1.612-3.813-1.381-.584zm-.606 3.424a16.124 16.124 0 0 0-2.698-.975l-.38 1.451c.823.216 1.639.51 2.447.886l.631-1.361zm-2.698-.975c-.892-.233-1.656-.365-2.267-.365v1.5c.422 0 1.042.095 1.887.316l.38-1.45zm-2.267-.365c-.523 0-1.025.06-1.423.255a1.43 1.43 0 0 0-.563.474 1.29 1.29 0 0 0-.221.734h1.5a.216.216 0 0 1-.04.11c-.028.043-.05.045-.016.029.088-.043.314-.102.763-.102v-1.5zm-2.207 1.463c0 .432.166.818.467 1.12l1.061-1.061c-.02-.021-.025-.032-.025-.032a.115.115 0 0 1-.003-.027h-1.5zm.537 1.181c.261.203.673.42 1.171.648l.625-1.364c-.494-.226-.764-.382-.875-.468l-.92 1.184zm1.195.658c.504.21 1.233.502 2.185.874l.547-1.396c-.95-.372-1.667-.659-2.155-.862l-.577 1.384zm2.17.868c.958.4 1.722.809 2.304 1.222l.868-1.224c-.7-.496-1.569-.955-2.595-1.382l-.577 1.384zm2.313 1.228c.562.387.955.845 1.203 1.374l1.358-.636c-.372-.794-.951-1.452-1.711-1.974l-.85 1.236zm1.21 1.391c.265.528.418 1.231.418 2.145h1.5c0-1.07-.178-2.02-.575-2.815l-1.342.67zm13.68 2.889.166.731.015-.003.016-.004-.198-.724zm1.394-.434h.75v-1.055l-.996.347.246.708zm0 4.309.29.692.46-.193v-.499h-.75zm-2.046.682-.186-.726.186.726zm-5.704-.248-.287.693.287-.693zm-1.984-1.798-.664.348.005.01.005.009.654-.367zm-.682-10.695h.75v-.75h-.75v.75zm-2.077 0h-.75v.75h.75v-.75zm0-2.418-.432-.613-.318.224v.389h.75zm2.635-1.86.433.613.175-.124.083-.197-.69-.292zm1.52-3.596v-.75h-.498l-.194.458.691.292zm3.874 0h.75v-.75h-.75v.75zm0 3.441h-.75v.75h.75v-.75zm4.216 0h.75v-.75h-.75v.75zm0 4.433v.75h.75v-.75h-.75zm-4.216 0v-.75h-.75v.75h.75zm1.612 9.089a7.31 7.31 0 0 0 1.624-.174l-.333-1.462a5.79 5.79 0 0 1-1.29.136v1.5zm1.655-.181c.472-.13.953-.279 1.444-.45l-.493-1.416c-.46.16-.909.3-1.346.418l.395 1.448zm.447-1.158v4.309h1.5V51.04h-1.5zm.46 3.617a14.09 14.09 0 0 1-1.942.648l.373 1.452a15.582 15.582 0 0 0 2.15-.716l-.58-1.384zm-1.942.648c-.64.164-1.492.255-2.573.255v1.5c1.152 0 2.14-.095 2.946-.303l-.373-1.452zm-2.573.255c-1.038 0-1.919-.163-2.657-.47l-.575 1.386c.956.396 2.039.584 3.232.584v-1.5zm-2.657-.47c-.683-.283-1.22-.762-1.618-1.472l-1.308.734c.553.985 1.339 1.704 2.351 2.124l.575-1.386zm-1.607-1.453c-.375-.716-.597-1.787-.597-3.279h-1.5c0 1.608.234 2.955.768 3.975l1.329-.696zm-.597-3.279V43.29h-1.5v7.068h1.5zm-.75-7.818h-2.077v1.5h2.077v-1.5zm-1.327.75v-2.418h-1.5v2.418h1.5zm-.317-1.805 2.635-1.86-.865-1.226-2.635 1.86.865 1.226zm2.893-2.181 1.52-3.596-1.382-.584-1.52 3.596 1.382.584zm.828-3.138h3.875v-1.5h-3.875v1.5zm3.125-.75v3.441h1.5v-3.441h-1.5zm.75 4.191h4.216v-1.5h-4.216v1.5zm3.466-.75v4.433h1.5v-4.433h-1.5zm.75 3.683h-4.216v1.5h4.216v-1.5zm-4.966.75v6.665h1.5V43.29h-1.5zm0 6.665c0 .667.16 1.306.613 1.776.458.475 1.089.648 1.75.648v-1.5c-.415 0-.59-.106-.67-.189-.084-.088-.193-.286-.193-.735h-1.5zm12.808-17.484-.37.653.01.005.36-.658zm0 4.185.37.653.007-.004-.377-.649zm-4.433 0-.395.637.012.008.013.008.37-.653zm0-4.185-.37-.653-.01.006.38.647zm5.177 6.386h.75v-.75h-.75v.75zm0 17.143v.75h.75V56h-.75zm-5.92 0h-.75v.75h.75V56zm0-17.143v-.75h-.75v.75h.75zm2.975-6.163c.742 0 1.344.153 1.831.43l.74-1.306c-.752-.426-1.618-.624-2.57-.624v1.5zm1.84.435c.302.165.572.535.572 1.45h1.5c0-1.193-.37-2.228-1.35-2.766l-.722 1.316zm.572 1.45c0 .856-.26 1.238-.587 1.428l.753 1.298c.953-.554 1.334-1.557 1.334-2.726h-1.5zm-.58 1.425c-.488.276-1.09.429-1.832.429v1.5c.953 0 1.819-.198 2.57-.624l-.739-1.305zm-1.832.429c-.766 0-1.377-.155-1.862-.43l-.74 1.306c.755.427 1.633.624 2.602.624v-1.5zm-1.836-.414c-.292-.181-.545-.563-.545-1.44h-1.5c0 1.149.346 2.151 1.254 2.714l.79-1.274zm-.545-1.44c0-.936.263-1.305.528-1.461l-.758-1.294c-.933.547-1.27 1.583-1.27 2.755h1.5zm.519-1.456c.485-.274 1.096-.429 1.862-.429v-1.5c-.97 0-1.847.197-2.602.625l.74 1.305zm4.057 5.734V56h1.5V38.857h-1.5zm.75 16.393h-5.92v1.5h5.92v-1.5zm-5.17.75V38.857h-1.5V56h1.5zm-.75-16.393h5.92v-1.5h-5.92v1.5zm19.287 11.867.166.731.016-.003.016-.004-.198-.724zm1.395-.434h.75v-1.055l-.996.347.246.708zm0 4.309.29.692.46-.193v-.499h-.75zm-2.046.682-.187-.726.187.726zm-5.704-.248-.287.693.287-.693zm-1.984-1.798-.664.348.005.01.005.009.654-.367zm-.682-10.695h.75v-.75h-.75v.75zm-2.077 0h-.75v.75h.75v-.75zm0-2.418-.432-.613-.318.224v.389h.75zm2.635-1.86.433.613.175-.124.083-.197-.691-.292zm1.519-3.596v-.75h-.497l-.194.458.691.292zm3.875 0h.75v-.75h-.75v.75zm0 3.441h-.75v.75h.75v-.75zm4.216 0h.75v-.75h-.75v.75zm0 4.433v.75h.75v-.75h-.75zm-4.216 0v-.75h-.75v.75h.75zm1.612 9.089c.567 0 1.109-.057 1.623-.174l-.332-1.462c-.395.09-.824.136-1.291.136v1.5zm1.655-.181c.472-.13.953-.279 1.444-.45l-.493-1.416c-.46.16-.909.3-1.346.418l.395 1.448zm.447-1.158v4.309h1.5V51.04h-1.5zm.46 3.617c-.605.254-1.252.47-1.943.648l.374 1.452a15.551 15.551 0 0 0 2.149-.716l-.58-1.384zm-1.943.648c-.64.164-1.491.255-2.572.255v1.5c1.151 0 2.14-.095 2.946-.303l-.374-1.452zm-2.572.255c-1.038 0-1.919-.163-2.658-.47l-.574 1.386c.956.396 2.038.584 3.232.584v-1.5zm-2.658-.47c-.682-.283-1.218-.762-1.617-1.472l-1.308.734c.552.985 1.339 1.704 2.351 2.124l.574-1.386zm-1.606-1.453c-.375-.716-.597-1.787-.597-3.279h-1.5c0 1.608.233 2.955.768 3.975l1.329-.696zm-.597-3.279V43.29h-1.5v7.068h1.5zm-.75-7.818h-2.077v1.5h2.077v-1.5zm-1.327.75v-2.418h-1.5v2.418h1.5zm-.317-1.805 2.635-1.86-.865-1.226-2.635 1.86.865 1.226zm2.893-2.181 1.519-3.596-1.382-.584-1.519 3.596 1.382.584zm.828-3.138h3.875v-1.5h-3.875v1.5zm3.125-.75v3.441h1.5v-3.441h-1.5zm.75 4.191h4.216v-1.5h-4.216v1.5zm3.466-.75v4.433h1.5v-4.433h-1.5zm.75 3.683h-4.216v1.5h4.216v-1.5zm-4.966.75v6.665h1.5V43.29h-1.5zm0 6.665c0 .667.16 1.306.613 1.776.458.475 1.089.648 1.749.648v-1.5c-.414 0-.589-.106-.669-.189-.084-.088-.193-.286-.193-.735h-1.5zm24.278-11.098h.75v-.75h-.75v.75zm0 17.143v.75h.75V56h-.75zm-4.464 0-.708.246.175.504h.533V56zm-.744-2.139.708-.246-.175-.504h-.533v.75zm-.341 0v-.75h-.418l-.22.355.638.395zm-2.201 1.891.279.696.006-.002.007-.003-.292-.691zm-6.014-.093.323-.677-.323.677zm-2.17-2.046-.656.364.007.011.649-.375zm-.775-14.756v-.75h-.75v.75h.75zm5.921 0h.75v-.75h-.75v.75zm.465 11.904-.661.354.005.01.005.008.651-.372zm3.813-.465-.689-.297-.003.007.692.29zm.589-11.439v-.75h-.75v.75h.75zm5.171 0V56h1.5V38.857h-1.5zm.75 16.393h-4.464v1.5h4.464v-1.5zm-3.756.504-.744-2.14-1.416.493.744 2.14 1.416-.493zm-1.452-2.643h-.341v1.5h.341v-1.5zm-.979.355a3.918 3.918 0 0 1-1.855 1.595l.584 1.382a5.422 5.422 0 0 0 2.547-2.187l-1.276-.79zm-1.842 1.59a7.18 7.18 0 0 1-2.697.504v1.5a8.696 8.696 0 0 0 3.255-.612l-.558-1.392zm-2.697.504c-1.016 0-1.917-.197-2.715-.578l-.646 1.354c1.021.487 2.145.724 3.361.724v-1.5zm-2.715-.578c-.763-.364-1.377-.936-1.844-1.744l-1.298.75c.607 1.052 1.441 1.844 2.496 2.348l.646-1.354zm-1.837-1.733c-.436-.785-.681-1.846-.681-3.232h-1.5c0 1.549.272 2.884.869 3.96l1.312-.728zm-.681-3.232v-11.16h-1.5v11.16h1.5zm-.75-10.41h5.921v-1.5h-5.921v1.5zm5.171-.75v9.362h1.5v-9.362h-1.5zm0 9.362c0 1.164.158 2.157.554 2.896l1.322-.708c-.224-.418-.376-1.12-.376-2.188h-1.5zm.564 2.914c.477.836 1.268 1.246 2.232 1.246v-1.5c-.482 0-.746-.168-.93-.49l-1.302.744zm2.232 1.246c.655 0 1.262-.13 1.78-.44.525-.313.903-.779 1.144-1.353l-1.384-.58c-.131.314-.311.515-.53.646-.226.135-.549.227-1.01.227v1.5zm2.921-1.786c.452-1.048.65-2.48.65-4.234h-1.5c0 1.677-.195 2.87-.528 3.64l1.378.594zm.65-4.234v-7.502h-1.5v7.502h1.5zm-.75-6.752h5.921v-1.5h-5.921v1.5zm19.249 11.867.166.731.015-.003.016-.004-.197-.724zm1.395-.434h.75v-1.055l-.997.347.247.708zm0 4.309.29.692.46-.193v-.499h-.75zm-2.046.682-.187-.726.187.726zm-5.704-.248-.288.693.288-.693zm-1.984-1.798-.665.348.005.01.005.009.655-.367zm-.682-10.695h.75v-.75h-.75v.75zm-2.077 0h-.75v.75h.75v-.75zm0-2.418-.433-.613-.317.224v.389h.75zm2.635-1.86.432.613.175-.124.083-.197-.69-.292zm1.519-3.596v-.75h-.498l-.193.458.691.292zm3.875 0h.75v-.75h-.75v.75zm0 3.441h-.75v.75h.75v-.75zm4.216 0h.75v-.75h-.75v.75zm0 4.433v.75h.75v-.75h-.75zm-4.216 0v-.75h-.75v.75h.75zm1.612 9.089c.566 0 1.108-.057 1.623-.174l-.333-1.462a5.79 5.79 0 0 1-1.29.136v1.5zm1.654-.181c.472-.13.954-.279 1.444-.45l-.493-1.416c-.46.16-.909.3-1.346.418l.395 1.448zm.448-1.158v4.309h1.5V51.04h-1.5zm.46 3.617a14.14 14.14 0 0 1-1.943.648l.373 1.452a15.61 15.61 0 0 0 2.15-.716l-.58-1.384zm-1.943.648c-.641.164-1.492.255-2.572.255v1.5c1.151 0 2.139-.095 2.945-.303l-.373-1.452zm-2.572.255c-1.039 0-1.919-.163-2.658-.47l-.575 1.386c.956.396 2.039.584 3.233.584v-1.5zm-2.658-.47c-.683-.283-1.219-.762-1.617-1.472l-1.309.734c.553.985 1.339 1.704 2.351 2.124l.575-1.386zm-1.607-1.453c-.375-.716-.596-1.787-.596-3.279h-1.5c0 1.608.233 2.955.767 3.975l1.329-.696zm-.596-3.279V43.29h-1.5v7.068h1.5zm-.75-7.818h-2.077v1.5h2.077v-1.5zm-1.327.75v-2.418h-1.5v2.418h1.5zm-.318-1.805 2.635-1.86-.865-1.226-2.635 1.86.865 1.226zm2.893-2.181 1.519-3.596-1.381-.584-1.519 3.596 1.381.584zm.829-3.138h3.875v-1.5h-3.875v1.5zm3.125-.75v3.441h1.5v-3.441h-1.5zm.75 4.191h4.216v-1.5h-4.216v1.5zm3.466-.75v4.433h1.5v-4.433h-1.5zm.75 3.683h-4.216v1.5h4.216v-1.5zm-4.966.75v6.665h1.5V43.29h-1.5zm0 6.665c0 .667.16 1.306.612 1.776.458.475 1.089.648 1.75.648v-1.5c-.415 0-.59-.106-.669-.189-.085-.088-.193-.286-.193-.735h-1.5zm12.807-17.484-.369.653.009.005.36-.658zm0 4.185.37.653.007-.004-.377-.649zm-4.433 0-.395.637.013.008.013.008.369-.653zm0-4.185-.369-.653-.01.006.379.647zm5.177 6.386h.75v-.75h-.75v.75zm0 17.143v.75h.75V56h-.75zm-5.921 0h-.75v.75h.75V56zm0-17.143v-.75h-.75v.75h.75zm2.976-6.163c.743 0 1.344.153 1.832.43l.739-1.306c-.752-.426-1.618-.624-2.571-.624v1.5zm1.841.435c.301.165.571.535.571 1.45h1.5c0-1.193-.37-2.228-1.35-2.766l-.721 1.316zm.571 1.45c0 .856-.26 1.238-.587 1.428l.753 1.298c.954-.554 1.334-1.557 1.334-2.726h-1.5zm-.58 1.425c-.488.276-1.089.429-1.832.429v1.5c.953 0 1.819-.198 2.571-.624l-.739-1.305zm-1.832.429c-.766 0-1.377-.155-1.862-.43l-.739 1.306c.755.427 1.632.624 2.601.624v-1.5zm-1.836-.414c-.291-.181-.545-.563-.545-1.44h-1.5c0 1.149.346 2.151 1.254 2.714l.791-1.274zm-.545-1.44c0-.936.263-1.305.529-1.461l-.759-1.294c-.933.547-1.27 1.583-1.27 2.755h1.5zm.519-1.456c.485-.274 1.096-.429 1.862-.429v-1.5c-.969 0-1.846.197-2.601.625l.739 1.305zm4.057 5.734V56h1.5V38.857h-1.5zm.75 16.393h-5.921v1.5h5.921v-1.5zm-5.171.75V38.857h-1.5V56h1.5zm-.75-16.393h5.921v-1.5h-5.921v1.5zm23.504 14.409.531.53.003-.003-.534-.527zm-10.695 1.271-.36.658.008.004.352-.662zm-3.038-3.038-.66.356.007.012.653-.368zm1.209-11.408-.53-.53.53.53zm10.695-1.271-.356.66.004.002.352-.662zm3.007 3.007-.658.36.007.012.651-.372zm-9.393 8.184-.67.335.003.008.667-.343zm3.906 0-.67-.335-.004.007.674.328zm0-6.665-.674.328.005.011.006.011.663-.35zm-3.906 0 .664.35.004-.007-.668-.343zm9.759 3.286c0 2.74-.726 4.738-2.077 6.107l1.067 1.054c1.708-1.731 2.51-4.156 2.51-7.161h-1.5zm-2.074 6.104c-1.357 1.357-3.246 2.074-5.763 2.074v1.5c2.816 0 5.122-.812 6.824-2.514l-1.061-1.06zm-5.763 2.074c-1.547 0-2.891-.318-4.049-.935l-.705 1.324c1.404.747 2.995 1.111 4.754 1.111v-1.5zm-4.041-.93c-1.154-.633-2.067-1.543-2.745-2.749l-1.307.736c.81 1.44 1.922 2.555 3.331 3.328l.721-1.316zm-2.738-2.737c-.652-1.21-.996-2.704-.996-4.511h-1.5c0 1.995.38 3.746 1.175 5.223l1.321-.712zm-.996-4.511c0-2.696.726-4.661 2.075-6.01l-1.061-1.061c-1.709 1.71-2.514 4.105-2.514 7.071h1.5zm2.075-6.01c1.356-1.357 3.255-2.075 5.793-2.075v-1.5c-2.834 0-5.152.811-6.854 2.514l1.061 1.06zm5.793-2.075c1.548 0 2.879.319 4.015.933l.713-1.32c-1.386-.75-2.969-1.113-4.728-1.113v1.5zm4.019.935c1.147.61 2.045 1.505 2.701 2.705l1.316-.72c-.79-1.446-1.897-2.556-3.312-3.31l-.705 1.325zm2.708 2.717c.664 1.162 1.017 2.628 1.017 4.433h1.5c0-1.997-.391-3.735-1.214-5.177l-1.303.744zm-10.081 4.433c0 1.515.2 2.777.669 3.714l1.341-.67c-.317-.634-.51-1.625-.51-3.044h-1.5zm.672 3.722a2.78 2.78 0 0 0 1.083 1.166c.467.27 1 .388 1.568.388v-1.5c-.361 0-.624-.074-.818-.186-.191-.11-.359-.283-.498-.554l-1.335.686zm2.651 1.554c.561 0 1.088-.119 1.547-.393.463-.276.809-.681 1.05-1.176l-1.349-.656c-.131.27-.291.438-.469.544-.182.108-.43.181-.779.181v1.5zm2.593-1.562c.469-.937.668-2.199.668-3.714h-1.5c0 1.42-.193 2.41-.509 3.044l1.341.67zm.668-3.714c0-1.492-.198-2.732-.675-3.636l-1.327.7c.309.585.502 1.535.502 2.936h1.5zm-.664-3.614a2.701 2.701 0 0 0-1.062-1.179c-.465-.273-.998-.39-1.566-.39v1.5c.363 0 .62.074.806.184.183.107.343.274.473.541l1.349-.656zm-2.628-1.569c-.56 0-1.088.119-1.55.39a2.802 2.802 0 0 0-1.07 1.164l1.335.686c.14-.274.309-.447.495-.556.189-.111.442-.184.79-.184v-1.5zm-2.616 1.547c-.477.904-.676 2.144-.676 3.636h1.5c0-1.4.194-2.351.503-2.936l-1.327-.7zm28.989-3.68-.504.555.005.006.499-.561zM192.063 56v.75h.75V56h-.75zm-5.921 0h-.75v.75h.75V56zm-4.34-11.408-.691-.292-.003.008.694.284zM181.244 56v.75h.75V56h-.75zm-5.921 0h-.75v.75h.75V56zm0-17.143v-.75h-.75v.75h.75zm4.464 0 .706-.252-.177-.498h-.529v.75zm.806 2.263-.707.252.178.498h.529v-.75zm.217 0v.75h.401l.223-.334-.624-.416zm2.108-1.891-.342-.668-.006.004.348.664zm3.131.068c1.626 0 2.882.459 3.836 1.324l1.008-1.11c-1.279-1.16-2.916-1.714-4.844-1.714v1.5zm3.841 1.33c.893.793 1.423 2.135 1.423 4.213h1.5c0-2.303-.587-4.144-1.926-5.335l-.997 1.122zm1.423 4.213V56h1.5V44.84h-1.5zm.75 10.41h-5.921v1.5h5.921v-1.5zm-5.171.75v-9.362h-1.5V56h1.5zm0-9.362c0-1.186-.169-2.2-.595-2.945l-1.303.744c.236.412.398 1.114.398 2.201h1.5zm-.595-2.945c-.478-.836-1.268-1.246-2.232-1.246v1.5c.482 0 .746.168.929.49l1.303-.744zm-2.232-1.246c-.662 0-1.274.138-1.797.46-.528.326-.909.805-1.157 1.393l1.382.584c.144-.342.336-.56.562-.7.232-.143.555-.237 1.01-.237v-1.5zm-2.957 1.861c-.427 1.042-.614 2.458-.614 4.19h1.5c0-1.658.184-2.846.502-3.622l-1.388-.568zm-.614 4.19V56h1.5v-7.502h-1.5zm.75 6.752h-5.921v1.5h5.921v-1.5zm-5.171.75V38.857h-1.5V56h1.5zm-.75-16.393h4.464v-1.5h-4.464v1.5zm3.757-.498.806 2.263 1.413-.504-.806-2.263-1.413.504zm1.513 2.761h.217v-1.5h-.217v1.5zm.841-.334a4.877 4.877 0 0 1 1.832-1.643l-.696-1.328a6.383 6.383 0 0 0-2.384 2.139l1.248.832zm1.825-1.64c.764-.39 1.686-.599 2.79-.599v-1.5c-1.294 0-2.459.246-3.473.764l.683 1.336zM4.1 76.186a8.806 8.806 0 0 1-1.914-.203 7.478 7.478 0 0 1-1.542-.508l.525-1.457c.35.147.78.299 1.288.457.52.158 1.062.237 1.626.237.554 0 1.006-.096 1.356-.288.35-.203.525-.497.525-.88 0-.35-.164-.639-.491-.865-.328-.226-.825-.446-1.491-.66-1.028-.328-1.819-.7-2.372-1.119-.543-.43-.814-1.045-.814-1.847 0-.768.305-1.378.915-1.83.621-.463 1.548-.694 2.779-.694.565 0 1.09.05 1.576.152.497.102.88.232 1.152.39v1.491c-.294-.136-.695-.266-1.203-.39a6.26 6.26 0 0 0-1.525-.186c-.678 0-1.164.102-1.457.305-.283.192-.424.424-.424.695 0 .35.17.62.509.813.35.192.937.43 1.762.711a9.236 9.236 0 0 1 1.49.644c.441.237.786.537 1.034.898.249.35.373.802.373 1.356 0 .485-.119.943-.356 1.372-.226.418-.61.757-1.152 1.017-.53.26-1.254.39-2.169.39zm1.257-10.894c-.735 0-1.248-.147-1.542-.44-.294-.306-.44-.644-.44-1.017 0-.18.028-.373.084-.576.045-.203.113-.379.203-.525l1.44.22a1.611 1.611 0 0 0-.101.525c0 .147.045.271.135.373.09.102.249.152.475.152h4.1v1.288H5.357zM10.709 76v-4.066H9.523v-1.288h2.88v3.93h.187c.7 0 1.231-.253 1.593-.762.361-.508.542-1.338.542-2.49 0-1.198-.215-2.05-.644-2.559-.43-.508-1.135-.762-2.118-.762a5.36 5.36 0 0 0-1.559.22 5.251 5.251 0 0 0-1.372.644V67.24c.35-.192.802-.355 1.355-.49a7.324 7.324 0 0 1 1.847-.221c.531 0 1 .05 1.406.152.418.102.768.266 1.05.492.238-.09.441-.22.61-.39a.953.953 0 0 0 .255-.678h1.694c0 .486-.147.904-.44 1.254-.294.339-.695.587-1.203.746.644.666.966 1.75.966 3.253 0 1.468-.322 2.609-.966 3.422-.633.813-1.717 1.22-3.253 1.22h-1.644zm-1.592 3.456v-.44c0-.655.186-1.152.559-1.491a1.937 1.937 0 0 1 1.321-.492c.452 0 .813.096 1.085.289.282.203.514.446.694.728l.966-.915 1.152.881V76.78h1.576v2.677h-1.66l-1.068-.915-.898.915h-.356a2.795 2.795 0 0 0-.474-.745.887.887 0 0 0-.695-.305c-.27 0-.457.102-.559.305a1.353 1.353 0 0 0-.152.61v.135H9.117zm13.38-3.27A8.95 8.95 0 0 1 20.582 76a12.346 12.346 0 0 1-1.474-.44v-3.796h1.627v2.745c.158.08.395.147.711.203.328.057.667.085 1.017.085.373 0 .717-.04 1.033-.119.317-.09.57-.248.763-.474.203-.226.305-.548.305-.966 0-.418-.108-.728-.322-.932-.204-.203-.514-.372-.932-.508a35.91 35.91 0 0 0-1.508-.457 13.512 13.512 0 0 1-1.677-.576c-.44-.204-.774-.447-1-.729-.215-.294-.322-.678-.322-1.152 0-1.57 1.231-2.355 3.694-2.355.768 0 1.423.062 1.965.186s.949.249 1.22.373v1.508c-.305-.147-.762-.288-1.372-.424a8.383 8.383 0 0 0-1.966-.22c-.52 0-.937.062-1.254.186-.316.113-.474.322-.474.627 0 .328.215.57.644.729.43.147 1.01.322 1.745.525.621.17 1.18.373 1.677.61a2.91 2.91 0 0 1 1.186.949c.305.395.458.937.458 1.626 0 .599-.124 1.124-.373 1.576-.248.44-.655.785-1.22 1.034-.553.248-1.299.372-2.236.372zm8.689 0a8.807 8.807 0 0 1-1.915-.203 7.478 7.478 0 0 1-1.541-.508l.525-1.457c.35.147.78.299 1.288.457.52.158 1.061.237 1.626.237.553 0 1.005-.096 1.356-.288.35-.203.525-.497.525-.88 0-.35-.164-.639-.492-.865-.327-.226-.824-.446-1.49-.66-1.029-.328-1.82-.7-2.373-1.119-.542-.43-.813-1.045-.813-1.847 0-.768.305-1.378.915-1.83.621-.463 1.547-.694 2.779-.694.565 0 1.09.05 1.575.152.497.102.881.232 1.152.39v1.491c-.293-.136-.694-.266-1.202-.39a6.261 6.261 0 0 0-1.525-.186c-.678 0-1.164.102-1.457.305-.283.192-.424.424-.424.695 0 .35.17.62.508.813.35.192.938.43 1.762.711a9.235 9.235 0 0 1 1.491.644c.44.237.785.537 1.034.898.248.35.373.802.373 1.356 0 .485-.119.943-.356 1.372-.226.418-.61.757-1.152 1.017-.531.26-1.254.39-2.169.39zm8.422 0a8.807 8.807 0 0 1-1.915-.203 7.48 7.48 0 0 1-1.541-.508l.525-1.457c.35.147.78.299 1.287.457.52.158 1.062.237 1.627.237.553 0 1.005-.096 1.355-.288.35-.203.526-.497.526-.88 0-.35-.164-.639-.492-.865-.327-.226-.824-.446-1.49-.66-1.029-.328-1.82-.7-2.373-1.119-.542-.43-.813-1.045-.813-1.847 0-.768.305-1.378.915-1.83.621-.463 1.547-.694 2.779-.694.564 0 1.09.05 1.575.152.497.102.881.232 1.152.39v1.491c-.293-.136-.694-.266-1.203-.39a6.261 6.261 0 0 0-1.524-.186c-.678 0-1.164.102-1.457.305-.283.192-.424.424-.424.695 0 .35.17.62.508.813.35.192.938.43 1.762.711a9.235 9.235 0 0 1 1.491.644c.44.237.785.537 1.034.898.248.35.373.802.373 1.356 0 .485-.119.943-.356 1.372-.226.418-.61.757-1.152 1.017-.531.26-1.254.39-2.17.39zm10.404-.017c-.745 0-1.378-.146-1.898-.44-.508-.294-.858-.695-1.05-1.203h-.102L46.827 76h-1.44v-9.285H47.2v5.1c0 .892.203 1.587.61 2.084.406.486.982.729 1.728.729 1.22 0 1.83-.661 1.83-1.983v-5.93h1.813v6.167c0 1.107-.277 1.932-.83 2.474-.554.542-1.334.813-2.339.813zm8.98 0c-1.005 0-1.79-.27-2.354-.813-.554-.542-.83-1.383-.83-2.524v-6.117h1.812v5.93c0 1.322.616 1.983 1.847 1.983.734 0 1.3-.243 1.694-.729.407-.497.61-1.192.61-2.084v-5.1h1.813V76h-1.44l-.135-1.39h-.102c-.203.453-.548.825-1.033 1.119-.486.294-1.113.44-1.881.44zm2.272 4.32c-.78 0-1.361-.14-1.745-.423-.395-.282-.593-.677-.593-1.186v-.288c0-.192-.045-.31-.136-.355-.101-.034-.237-.029-.406.016l-.119-1.05c.158-.056.333-.09.525-.102a7.52 7.52 0 0 1 .424-.017c.43 0 .74.09.932.271.18.181.27.435.27.763v.525c0 .215.063.384.187.508.124.136.333.204.627.204.305 0 .52-.068.644-.204.113-.124.17-.293.17-.508v-1.508h1.541v1.644c0 1.14-.774 1.71-2.321 1.71zm13.91-1.44a7.1 7.1 0 0 1-1.457-.152 5.79 5.79 0 0 1-1.338-.423v-1.66c.338.225.745.4 1.22.525.485.124.965.186 1.44.186.7 0 1.265-.164 1.694-.492.43-.327.644-.937.644-1.83v-.457h-.085c-.215.34-.542.627-.983.864-.429.226-.96.34-1.592.34a3.363 3.363 0 0 1-1.457-.306 2.265 2.265 0 0 1-1.017-.966c-.237-.451-.356-1.039-.356-1.762v-2.965c0-.508-.096-.903-.288-1.186a1.441 1.441 0 0 0-.728-.593 2.806 2.806 0 0 0-.983-.17c-.553 0-1.01.12-1.372.357-.35.237-.537.587-.56 1.05l1.796.847-.135.898c-.43.012-.78.136-1.05.373-.272.226-.407.621-.407 1.186v1.356c0 .474.231.711.695.711.237 0 .446-.034.626-.102l.22 1.22c-.214.102-.429.17-.643.204a3.205 3.205 0 0 1-.661.067c-.565 0-1.045-.135-1.44-.406-.395-.283-.593-.78-.593-1.491v-1.474c0-.69.152-1.192.457-1.508.305-.317.7-.542 1.186-.678l.017-.068-1.914-.694v-.526c0-.52.152-.988.457-1.406.305-.43.74-.768 1.305-1.016.576-.249 1.254-.373 2.033-.373.689 0 1.316.113 1.88.339a2.87 2.87 0 0 1 1.373 1.033c.35.475.525 1.102.525 1.88v2.83c0 .633.141 1.09.424 1.373.293.282.672.423 1.135.423.633 0 1.135-.231 1.508-.694.384-.475.576-1.107.576-1.898v-5.1h1.813v8.353c0 1.344-.339 2.344-1.017 3-.677.654-1.66.982-2.948.982zm8.861-2.88c-.564 0-1.039-.135-1.423-.406-.384-.283-.576-.78-.576-1.491v-6.523c0-.305.023-.554.068-.746a1.94 1.94 0 0 1 .27-.576c.125-.192.3-.43.526-.712.26-.316.458-.581.593-.796.147-.226.22-.468.22-.728 0-.633-.395-.95-1.186-.95-.338 0-.65.052-.931.153-.272.09-.498.192-.678.305v-1.457c.158-.09.412-.18.762-.27.35-.102.768-.153 1.254-.153.79 0 1.423.175 1.898.525.474.339.711.858.711 1.559 0 .451-.09.847-.27 1.186-.17.338-.362.644-.577.915-.192.248-.35.457-.474.626a1.9 1.9 0 0 0-.288.509 2.12 2.12 0 0 0-.085.66v6.252c0 .464.22.695.66.695a1.97 1.97 0 0 0 .627-.119l.22 1.271c-.214.102-.434.17-.66.204a3.204 3.204 0 0 1-.66.067zm6.08 0c-1.004 0-1.79-.27-2.354-.813-.554-.542-.83-1.383-.83-2.524v-6.117h1.812v5.93c0 1.322.616 1.983 1.847 1.983.734 0 1.3-.243 1.694-.729.407-.497.61-1.192.61-2.084v-5.1h1.813V76h-1.44l-.135-1.39h-.102c-.203.453-.548.825-1.034 1.119-.485.294-1.112.44-1.88.44zM97.573 76v-7.523c0-.508.096-.898.288-1.169a1.52 1.52 0 0 1 .762-.593 3.2 3.2 0 0 1 1.05-.17c.193 0 .39.023.594.069.203.033.384.09.542.169l-.238 1.288a1.463 1.463 0 0 0-.321-.068 2.392 2.392 0 0 0-.255-.017c-.248 0-.429.068-.542.203-.101.125-.152.3-.152.526v2.32c0 .328-.006.684-.017 1.068 0 .384-.023.847-.068 1.39h.068c.226-.498.435-.91.627-1.237.192-.328.361-.639.508-.932l.83-1.407h.949l.813 1.407c.249.451.458.836.627 1.152.17.305.339.644.508 1.016h.085a27.542 27.542 0 0 1-.101-2.456v-7.659h1.745V76h-1.661l-2.457-4.219h-.067L99.232 76h-1.66zm2.82-10.708c-.734 0-1.248-.147-1.541-.44-.294-.306-.441-.644-.441-1.017 0-.18.023-.373.068-.576.045-.203.113-.379.203-.525l1.44.22a1.006 1.006 0 0 0-.051.237 2.69 2.69 0 0 0-.017.288c0 .147.046.271.136.373.09.102.243.152.457.152h2.44v1.288h-2.694zm11.482 10.877c-1.006 0-1.791-.27-2.355-.813-.554-.542-.831-1.383-.831-2.524v-6.117h1.813v5.93c0 1.322.616 1.983 1.847 1.983.734 0 1.299-.243 1.694-.729.407-.497.61-1.192.61-2.084v-5.1h1.813V76h-1.44l-.135-1.39h-.102c-.203.453-.548.825-1.034 1.119-.485.294-1.112.44-1.88.44zm10.776.017c-1.276 0-2.225-.322-2.846-.965-.621-.644-.932-1.65-.932-3.016 0-.226.006-.48.017-.763.023-.282.051-.547.085-.796h3.71v1.305h-1.999v.305c0 .96.158 1.62.474 1.982.328.35.814.525 1.457.525.464 0 .865-.09 1.203-.27.351-.193.616-.526.797-1 .192-.475.288-1.153.288-2.034 0-1.175-.204-2.039-.61-2.592-.395-.565-1.096-.847-2.101-.847a5.77 5.77 0 0 0-1.576.22 5.452 5.452 0 0 0-1.389.576V67.19c.35-.181.813-.334 1.389-.458a8.051 8.051 0 0 1 1.847-.203c1.017 0 1.841.203 2.474.61.632.395 1.095.96 1.389 1.694.294.734.441 1.598.441 2.592 0 1.514-.317 2.689-.949 3.525-.622.824-1.678 1.236-3.169 1.236zm9.829 0c-1.277 0-2.226-.322-2.847-.965-.621-.644-.932-1.65-.932-3.016 0-.226.006-.48.017-.763.023-.282.051-.547.085-.796h3.711v1.305h-2v.305c0 .96.158 1.62.475 1.982.327.35.813.525 1.457.525.463 0 .864-.09 1.203-.27.35-.193.615-.526.796-1 .192-.475.288-1.153.288-2.034 0-1.175-.203-2.039-.61-2.592-.395-.565-1.095-.847-2.101-.847-.531 0-1.056.073-1.575.22a5.444 5.444 0 0 0-1.39.576V67.19c.35-.181.813-.334 1.39-.458a8.043 8.043 0 0 1 1.846-.203c1.017 0 1.841.203 2.474.61.633.395 1.096.96 1.389 1.694.294.734.441 1.598.441 2.592 0 1.514-.316 2.689-.949 3.525-.621.824-1.677 1.236-3.168 1.236zm6.338-.186v-3.1c0-.712.152-1.237.457-1.576.305-.34.706-.576 1.203-.712l.017-.068-1.847-.694v-.526c0-.485.153-.937.458-1.355.316-.43.768-.774 1.355-1.034.588-.27 1.299-.406 2.135-.406.734 0 1.401.118 1.999.356a2.986 2.986 0 0 1 1.424 1.084c.35.486.525 1.113.525 1.88V76h-1.813v-5.998c0-.7-.203-1.203-.61-1.508-.407-.316-.926-.474-1.559-.474-.644 0-1.146.135-1.508.406-.361.26-.548.593-.559 1l1.745.847-.152.898c-.429.011-.78.153-1.051.424-.271.27-.406.689-.406 1.254V76h-1.813zm12.629.17c-.553 0-1.027-.136-1.423-.407-.384-.283-.576-.78-.576-1.491v-7.557h1.813v7.337c0 .248.051.429.153.542.101.101.276.152.525.152.09 0 .192-.011.305-.034.113-.022.22-.05.322-.084l.203 1.27a2.35 2.35 0 0 1-.661.204 3.371 3.371 0 0 1-.661.067zm4.761 0c-.553 0-1.027-.136-1.423-.407-.384-.283-.576-.78-.576-1.491v-7.557h1.813v7.337c0 .248.051.429.153.542.101.101.276.152.525.152.09 0 .192-.011.305-.034.113-.022.22-.05.322-.084l.203 1.27a2.35 2.35 0 0 1-.661.204 3.371 3.371 0 0 1-.661.067zm6.677.016c-1.378 0-2.366-.316-2.965-.948-.598-.633-.898-1.537-.898-2.711v-5.812h1.813v5.862c0 .7.164 1.232.492 1.593.338.35.858.525 1.558.525.712 0 1.232-.175 1.559-.525.339-.361.508-.892.508-1.593v-5.862h1.813v5.812c0 1.174-.305 2.078-.915 2.71-.598.633-1.587.95-2.965.95zm10.391 0c-1.378 0-2.366-.316-2.965-.948-.598-.633-.898-1.537-.898-2.711v-5.812h1.813v5.862c0 .7.164 1.232.492 1.593.338.35.858.525 1.558.525.712 0 1.231-.175 1.559-.525.339-.361.508-.892.508-1.593v-5.862h1.813v5.812c0 1.174-.305 2.078-.915 2.71-.598.633-1.587.95-2.965.95zm9.053-.017c-.554 0-1.028-.135-1.424-.406-.384-.283-.576-.78-.576-1.491v-8.726c0-.632.085-1.101.254-1.406.181-.305.385-.542.61-.712l-.016-.067h-2.847l.407-1.373h4.964v1.373a1.6 1.6 0 0 0-1.101.406c-.305.271-.458.768-.458 1.491v8.794c0 .248.051.429.153.542.101.101.276.152.525.152.09 0 .192-.011.305-.034.113-.022.22-.05.322-.084l.203 1.27a2.34 2.34 0 0 1-.661.204 3.362 3.362 0 0 1-.66.067zm5.906 0c-.915 0-1.638-.209-2.168-.626-.52-.418-.887-.983-1.102-1.695-.214-.711-.322-1.513-.322-2.406 0-1.287.181-2.287.543-2.999.361-.711.864-1.208 1.507-1.49.644-.283 1.39-.424 2.237-.424 1.412 0 2.428.3 3.05.898.621.598.932 1.406.932 2.423V76h-1.813v-5.98c0-.656-.164-1.153-.492-1.492-.316-.339-.864-.508-1.643-.508-.486 0-.915.09-1.288.27-.373.182-.666.52-.881 1.017-.214.486-.322 1.198-.322 2.135 0 .622.062 1.175.187 1.66.124.486.333.87.626 1.153.305.282.723.423 1.254.423.317 0 .593-.04.83-.118l.17 1.39c-.181.078-.39.135-.627.169s-.463.05-.678.05zm-.37-10.86v-.78c.204-.045.418-.107.644-.186a2.04 2.04 0 0 0 .576-.339.682.682 0 0 0 .22-.525.52.52 0 0 0-.118-.356c-.09-.09-.22-.135-.39-.135a.785.785 0 0 0-.322.068 5.013 5.013 0 0 0-.305.101l-.339-.983c.226-.18.486-.299.78-.355.294-.068.536-.102.728-.102.463 0 .831.124 1.102.373.259.248.389.576.389.982 0 .34-.113.644-.338.915h2.71v1.322h-5.337z" fill="#000"/></svg>