<svg width="80" height="80" fill="none" xmlns="http://www.w3.org/2000/svg"><path d="M60.086 11.386c-.676-.445-1.503-.52-2.18-.148l-36.77 18.996a2.052 2.052 0 0 0-1.128 2.003 2.173 2.173 0 0 0 1.429 1.855l10.677 3.636 11.58-9.35-8.346 10.389 18.347 6.159c.225.074.451.074.677.074a2.14 2.14 0 0 0 1.128-.297c.526-.297.902-.89.977-1.484l4.512-29.83c.075-.742-.226-1.484-.903-2.003zM34 49.876c0 .91.6 1.745 1.5 2.048.225.076.45.076.6.076.675 0 1.35-.303 1.725-.834L43 44.11 34 41v8.876zm-1.362 5.308c-.387-.298-1.005-.224-1.315.149L20.191 69.556c-.31.372-.232.968.154 1.266.232.149.464.223.696.149.232 0 .464-.15.619-.373l11.21-14.223c.232-.298.154-.893-.232-1.191zm2.869 5.202L30.18 67.54c-.292.376-.219.979.146 1.28.219.15.438.226.657.15.219 0 .438-.15.583-.376l5.254-7.154c.292-.376.219-.979-.146-1.28-.365-.301-.876-.15-1.167.226zM19.983 61c.219 0 .438-.15.583-.377l5.254-7.156c.292-.377.219-.98-.146-1.281-.365-.301-.949-.226-1.24.15l-5.254 7.157c-.292.377-.219.98.146 1.281.146.226.438.226.657.226z" fill="#000"/></svg>