<svg width="80" height="80" fill="none" xmlns="http://www.w3.org/2000/svg"><path d="M58.902 49.5h-1.775v-1.979c0-.341-.136-.682-.41-.887a1.185 1.185 0 0 0-.955-.205l-3.003.614c-.205-3.89-3.345-6.962-7.304-6.962H34.807c-3.959 0-7.099 3.072-7.304 6.962l-3.071-.614c-.341-.068-.683 0-.956.205-.273.205-.41.546-.41.887v1.98h-1.774c-.614 0-1.092.477-1.092 1.092v21.091c0 .615.478 1.093 1.092 1.093h37.61c.614 0 1.092-.478 1.092-1.093V50.662c.069-.614-.478-1.16-1.092-1.16zM39.04 70.389l-13.652-2.662v-18.84l13.652 2.662v18.84zm15.836-2.662-13.652 2.662v-18.84l13.652-2.662v18.84z" fill="#000"/><path d="m28.527 54.825 6.895 1.365h.204c.546 0 1.024-.341 1.092-.887.137-.615-.273-1.229-.887-1.297l-6.894-1.365c-.614-.137-1.229.273-1.297.887-.136.614.273 1.16.887 1.297zm0 5.255 6.895 1.366h.204c.546 0 1.024-.341 1.092-.887.137-.615-.273-1.23-.887-1.297l-6.894-1.366c-.614-.136-1.229.273-1.297.888-.136.614.273 1.16.887 1.297zm0 5.256 6.895 1.366h.204c.546 0 1.024-.342 1.092-.888.137-.614-.273-1.228-.887-1.297l-6.894-1.365c-.614-.136-1.229.273-1.297.888-.136.614.273 1.16.887 1.296zm16.109-9.146h.205l6.894-1.365c.614-.137 1.024-.683.887-1.297-.136-.614-.682-1.024-1.297-.887l-6.894 1.365c-.614.136-1.023.682-.887 1.297.068.477.546.887 1.092.887zm0 5.256h.205l6.894-1.365c.614-.137 1.024-.683.887-1.297-.136-.614-.682-1.024-1.297-.888l-6.894 1.366c-.614.136-1.023.682-.887 1.297.068.546.546.887 1.092.887zm0 5.256h.205l6.894-1.366c.614-.136 1.024-.682.887-1.296-.136-.615-.682-1.024-1.297-.888l-6.894 1.365c-.614.137-1.023.683-.887 1.297.068.546.546.888 1.092.888zm-4.505-28.873a8.874 8.874 0 1 0 0-17.747 8.874 8.874 0 0 0 0 17.747zm0-21.639c.956 0 1.775-.818 1.775-1.774V9.775c0-.956-.819-1.775-1.775-1.775-.955 0-1.774.82-1.774 1.775v4.641c0 .956.819 1.775 1.774 1.775zm6.416 1.707c.274.137.615.273.888.273.614 0 1.228-.341 1.57-.887l2.32-4.027c.478-.82.205-1.912-.682-2.458-.82-.477-1.911-.204-2.457.683l-2.321 4.027a1.727 1.727 0 0 0 .682 2.39zm-15.221-.614c.341.546.956.887 1.57.887.273 0 .614-.068.887-.273a1.85 1.85 0 0 0 .683-2.457l-2.32-4.027a1.85 1.85 0 0 0-2.458-.683 1.85 1.85 0 0 0-.683 2.457l2.321 4.096z" fill="#000"/></svg>