<svg width="115" height="35" viewBox="0 0 229 70" fill="none" xmlns="http://www.w3.org/2000/svg"><g clip-path="url(#a)" fill="#fff"><path d="M175.39 15.4a7.7 7.7 0 1 0 0-15.4 7.7 7.7 0 1 0 0 15.4zM164.5 68.49v-8.74l2.86-.65c.65-.07.79-.29.79-1V30.14c0-.57-.14-.79-.79-1l-2.86-.71v-8.69h21.79v8.75l-2.87.72c-.64.21-.79.43-.79 1v27.93c0 .64.15.79.72 1l2.94.79v8.6l-21.79-.04zm-39.67 0-12.15-38.46a.86.86 0 0 0-.72-.64l-3.79-.64v-8.87h24.52v8.87l-2.86.86a1.15 1.15 0 0 0-1 1.14c.049.801.193 1.593.43 2.36l5.22 20.59h.35l5.2-20.56c.229-.769.373-1.56.43-2.36a1.224 1.224 0 0 0-1.07-1.14l-2.79-.86v-8.87h23.88v8.8l-3.93.78a.919.919 0 0 0-.72.72l-11.79 38.31-19.21-.03zm66.33-3.51c.047-4.435.361-8.863.94-13.26h11.73l1.15 5.59c1.503.505 3.075.771 4.66.79 2.72 0 4.51-1.22 4.51-3.16 0-2.43-3.08-3.36-6.74-4.44-7.31-2.22-16.05-5.09-16.05-16.42 0-11.33 7.45-15.05 18.71-15.05 7.17 0 11.83 1.86 16.84 4.23a79.338 79.338 0 0 1-.78 12.54h-11.74l-.57-4.94a9.198 9.198 0 0 0-3.59-.72c-2.65 0-4.37.64-4.37 2.72 0 2.44 3.3 3.88 6.88 5.09 7 2.29 15.92 5.45 15.92 15.85 0 10.4-6.6 15.48-19.07 15.48a42.79 42.79 0 0 1-18.43-4.3zM28.67 19.88v8.85l3.51 1c1.46.39 1.44 1.14.68 3.41l-6.8 20.61h-.49l-5.25-20.61c-.59-2.2-.58-3.12.68-3.41l3.73-1v-8.85H0v8.85l4 .78c.39.1.48.29.58.68l12 38.3h17.25l6-20.35 6 20.32h17.3l12-38.3a1 1 0 0 1 .7-.7l3.87-.76v-8.85H54.99v8.85l3.73 1c1.27.29 1.27 1.21.68 3.41l-5.25 20.61h-.48l-6.84-20.58c-.75-2.27-.78-3 .68-3.41l3.51-1v-8.85H28.67zm62.34 26.65h6.47v-1.84c0-2-1.14-3.06-3.2-3.06-2.06 0-3.27 1.07-3.27 3.06v1.84zm-13.79 8.39v-9.38c0-8.6 6.68-14.29 16.78-14.29 10.1 0 16.77 5.69 16.77 14.29v8H91.01v1.92c0 2.06 2.42 3.41 5 3.41s5.12-1.14 5.54-2.91h9.17v7c-3.69 4.34-9.31 6.26-15.14 6.26-10.96-.01-18.36-5.7-18.36-14.3z"/></g><defs><clipPath id="a"><path fill="#fff" d="M0 0h228.66v69.28H0z"/></clipPath></defs></svg>